<svg width="185.000000" height="70.000000" viewBox="0 0 185 70" fill="none" xmlns="http://www.w3.org/2000/svg" xmlns:xlink="http://www.w3.org/1999/xlink">
	<desc>
			Created with Pixso.
	</desc>
	<defs/>
	<path id="Vector" d="M67 40.68C67.75 40.96 68.59 41.26 69.49 41.58C70.41 41.89 71.28 42.31 72.1 42.83C72.92 43.35 73.6 44.02 74.13 44.83C74.66 45.64 74.93 46.65 74.93 47.87C74.93 49.29 74.55 50.53 73.79 51.6C73.03 52.67 72.04 53.49 70.81 54.07C69.58 54.65 68.29 54.94 66.92 54.94C65.55 54.94 64.39 54.79 63.44 54.48C62.5 54.18 61.77 53.88 61.26 53.58C60.75 53.27 60.5 53.12 60.5 53.12L60.5 52.21C61.16 52.74 61.99 53.24 62.99 53.7C63.99 54.15 65.3 54.38 66.92 54.38C67.96 54.38 68.98 54.14 70.01 53.67C71.04 53.2 71.9 52.52 72.6 51.64C73.29 50.75 73.64 49.68 73.64 48.44C73.64 47.35 73.45 46.46 73.05 45.78C72.66 45.09 72.12 44.54 71.45 44.13C70.78 43.7 70.04 43.35 69.23 43.08C68.43 42.8 67.6 42.5 66.77 42.16C66.04 41.89 65.3 41.59 64.57 41.27C63.83 40.95 63.16 40.56 62.55 40.11C61.94 39.66 61.46 39.07 61.11 38.36C60.76 37.65 60.61 36.77 60.66 35.74C60.7 34.54 60.96 33.54 61.41 32.73C61.87 31.91 62.46 31.27 63.18 30.79C63.9 30.31 64.67 29.96 65.5 29.73C66.32 29.5 67.11 29.38 67.87 29.38C68.88 29.38 69.78 29.5 70.58 29.74C71.37 29.99 72.01 30.23 72.48 30.47C72.95 30.71 73.18 30.83 73.18 30.83L73.22 31.59C73.22 31.59 73 31.46 72.55 31.21C72.11 30.96 71.49 30.7 70.69 30.43C69.9 30.16 68.96 30.02 67.87 30.02C66.78 30.02 65.79 30.25 64.9 30.71C64.02 31.17 63.31 31.82 62.77 32.65C62.25 33.49 61.98 34.47 61.98 35.58C61.98 36.62 62.19 37.44 62.6 38.05C63.02 38.66 63.61 39.16 64.37 39.56C65.13 39.95 66.01 40.33 67 40.68Z" fill="#3F3F3F" fill-opacity="1.000000" fill-rule="nonzero"/>
	<path id="Vector" d="M77.77 54.03L88.6 29.64L88.82 29.64L99.22 54.03L97.74 54.03L93.65 44.4L82.91 44.4L78.65 54.03L77.77 54.03ZM83.2 43.8L93.38 43.8L88.37 32.12L83.2 43.8Z" fill="#3F3F3F" fill-opacity="1.000000" fill-rule="nonzero"/>
	<path id="Vector" d="M102.79 54.03L102.79 30.1L104.16 30.1L104.16 54.03L102.79 54.03Z" fill="#3F3F3F" fill-opacity="1.000000" fill-rule="nonzero"/>
	<path id="Vector" d="M132.52 29.64L135.37 54.03L134 54.03L131.5 32.73L121.39 51.94L121.24 51.94L111.34 32.81L108.49 54.03L107.85 54.03L111.15 29.64L111.26 29.64L121.74 49.93L132.41 29.64L132.52 29.64Z" fill="#3F3F3F" fill-opacity="1.000000" fill-rule="nonzero"/>
	<path id="Vector" d="M138.21 54.03L149.03 29.64L149.26 29.64L159.66 54.03L158.18 54.03L154.09 44.4L143.34 44.4L139.09 54.03L138.21 54.03ZM143.64 43.8L153.81 43.8L148.81 32.12L143.64 43.8Z" fill="#3F3F3F" fill-opacity="1.000000" fill-rule="nonzero"/>
	<path id="Vector" d="M162.35 54.03L173.18 29.64L173.4 29.64L183.8 54.03L182.32 54.03L178.23 44.4L167.49 44.4L163.23 54.03L162.35 54.03ZM167.78 43.8L177.96 43.8L172.95 32.12L167.78 43.8Z" fill="#3F3F3F" fill-opacity="1.000000" fill-rule="nonzero"/>
	<path id="Vector" d="M75.18 11.56C70.63 9.79 69.36 8 59.39 9.49C57.25 9.81 57.22 10.04 59.31 9.9C68.92 9.23 68.72 11.81 74.69 12.79C83.64 12.79 76.1 11.91 75.18 11.56Z" fill="#3F3F3F" fill-opacity="1.000000" fill-rule="nonzero"/>
	<path id="Vector" d="M101.03 3.03C93.35 5.19 90.41 6.06 80.77 5.45C73.21 4.97 64.09 3.45 63.96 4.14C63.94 4.27 64.05 4.31 64.86 4.46C72.38 5.88 79.33 8.85 86.82 8.14C101.01 6.8 108.92 -3.28 133.99 2.01C136.24 2.48 136.83 2.58 136.92 2.5C137.13 2.3 123.79 -3.37 101.03 3.03Z" fill="#3F3F3F" fill-opacity="1.000000" fill-rule="nonzero"/>
	<path id="Vector" d="M15.07 3.3C22.29 5.32 24.47 5.88 28.47 5.41C28.83 5.36 33.13 4.81 33.13 4.46C33.13 4.35 33.53 4.35 29.15 4.41C19.02 4.56 13.53 1.69 8.76 1.47C4.76 1.28 -4.3 3.34 2.38 2.4C8.7 1.52 9.16 1.64 15.07 3.3Z" fill="#3F3F3F" fill-opacity="1.000000" fill-rule="nonzero"/>
	<path id="Vector" d="M128.41 14.21C124.13 14.2 123.7 14.34 116.58 12.59C91.63 6.43 83.44 13.72 72.87 14.59C66.52 15.1 58.2 12.73 52.33 10.93C44.81 8.64 43.5 8.68 33.57 10.47C27.89 11.5 25.49 11.73 25.49 11.73C24.24 12.5 40.15 11.34 46.35 11.75C51.23 12.07 57.61 14.03 64.14 14.87C68.43 15.43 50.78 14.73 47.25 15.3C31.92 17.79 25.46 27.94 7.95 21.73C6.5 21.21 6.31 21.15 6.24 21.22C5.92 21.54 17.17 29.51 30.54 25.04C37.91 22.58 43.31 14.79 57.08 16.32C61.87 16.85 66.99 21.47 76.51 17.14C84.72 13.41 84.69 13.05 90.72 12.31C101.71 10.96 104.7 12.32 108.1 13.55C111.39 14.74 112.09 14.81 111.1 14.84C105.15 14.99 97.68 20.85 88.77 22.32C82.41 23.38 80.45 23.99 76.92 23.99C72.62 23.99 68.1 22.7 66.56 21.82C64.43 20.61 67.66 25.47 78.82 26.54C78.82 26.54 81.96 26.57 82.9 26.47C90.04 25.73 93.07 23.7 95.68 22.1C99.12 20.01 108.72 14.13 114.45 15.55C124.24 17.96 126.07 15.16 135.17 14.84C138.64 14.72 137.41 14.23 128.41 14.21Z" fill="#3F3F3F" fill-opacity="1.000000" fill-rule="nonzero"/>
	<path id="Vector" d="M103.79 14.18C99.68 14.71 96.37 13.93 91.51 13.93C89.85 13.93 88.07 14.15 90.16 14.68C99.89 17.15 108.82 13.53 103.79 14.18Z" fill="#3F3F3F" fill-opacity="1.000000" fill-rule="nonzero"/>
	<path id="Vector" d="M32.19 7.43C41.01 6.31 47.19 4.45 55.52 3.45C70.96 1.6 70.72 4.91 83.86 4.91C88.24 4.91 92.45 4.17 88.09 4.33C77.47 4.74 70.75 1.5 64.94 0.53C51.97 -1.63 39.87 4.34 31.17 5.93C17.35 8.46 15.45 4.44 6.18 4.42C4.74 4.42 4.33 4.47 3.79 4.72C3.3 4.95 3.39 4.97 5 4.97C15.67 4.99 16.26 9.45 32.19 7.43Z" fill="#3F3F3F" fill-opacity="1.000000" fill-rule="nonzero"/>
	<path id="Vector" d="M143.13 69.74L143.13 60.28L143.67 60.28L143.67 69.74L143.13 69.74ZM144.74 64.65L149.06 69.74L148.35 69.74L144.2 64.85L148.64 60.28L148.98 60.28L144.74 64.65Z" fill="#3F3F3F" fill-opacity="1.000000" fill-rule="nonzero"/>
	<path id="Vector" d="M155.36 60.1C156.03 60.1 156.67 60.19 157.29 60.39C157.91 60.57 158.47 60.87 158.95 61.26C159.44 61.66 159.82 62.17 160.1 62.8C160.39 63.43 160.54 64.17 160.54 65.04C160.54 65.85 160.42 66.54 160.18 67.1C159.95 67.67 159.64 68.14 159.26 68.51C158.87 68.89 158.45 69.19 157.99 69.41C157.53 69.63 157.08 69.78 156.61 69.87C156.16 69.95 155.74 70 155.36 70C154.99 70 154.57 69.95 154.11 69.87C153.65 69.78 153.19 69.63 152.73 69.41C152.27 69.19 151.85 68.89 151.47 68.51C151.09 68.14 150.79 67.67 150.55 67.1C150.32 66.54 150.2 65.85 150.2 65.04C150.2 64.17 150.34 63.43 150.62 62.8C150.9 62.17 151.28 61.66 151.76 61.26C152.25 60.87 152.8 60.57 153.42 60.39C154.04 60.19 154.69 60.1 155.36 60.1ZM155.36 69.75C155.7 69.75 156.08 69.71 156.49 69.64C156.89 69.57 157.3 69.43 157.71 69.24C158.12 69.04 158.5 68.76 158.84 68.41C159.19 68.07 159.47 67.62 159.68 67.07C159.89 66.51 160 65.84 160 65.04C160 64.26 159.88 63.6 159.65 63.05C159.43 62.51 159.14 62.06 158.78 61.71C158.42 61.36 158.03 61.08 157.61 60.88C157.2 60.68 156.79 60.54 156.39 60.47C155.99 60.39 155.65 60.35 155.36 60.35C155.07 60.35 154.73 60.39 154.33 60.47C153.93 60.54 153.52 60.68 153.1 60.88C152.68 61.08 152.29 61.36 151.93 61.71C151.58 62.06 151.29 62.51 151.07 63.05C150.84 63.6 150.73 64.26 150.73 65.04C150.73 65.84 150.83 66.51 151.04 67.07C151.25 67.62 151.53 68.07 151.87 68.41C152.22 68.76 152.6 69.04 153 69.24C153.41 69.43 153.82 69.57 154.23 69.64C154.64 69.71 155.02 69.75 155.36 69.75Z" fill="#3F3F3F" fill-opacity="1.000000" fill-rule="nonzero"/>
	<path id="Vector" d="M168.53 69.74L167.84 69.74L164.36 65.35C164.3 65.35 164.24 65.35 164.19 65.35C164.14 65.35 164.11 65.35 164.09 65.35L162.47 65.35L162.47 69.74L161.93 69.74L161.93 60.28L164.78 60.28C164.97 60.28 165.23 60.3 165.57 60.36C165.9 60.41 166.24 60.52 166.58 60.68C166.92 60.85 167.21 61.09 167.44 61.4C167.68 61.71 167.79 62.13 167.79 62.64C167.79 63.13 167.7 63.54 167.52 63.86C167.35 64.18 167.11 64.43 166.82 64.63C166.53 64.83 166.23 64.98 165.91 65.08C165.59 65.17 165.29 65.24 165.01 65.28L168.53 69.74ZM163.83 65.09C164.41 65.09 164.97 65.01 165.49 64.87C166.02 64.72 166.44 64.49 166.77 64.15C167.1 63.82 167.26 63.38 167.26 62.82C167.26 62.18 167.11 61.7 166.82 61.37C166.53 61.05 166.15 60.83 165.68 60.71C165.21 60.59 164.72 60.53 164.21 60.53L162.47 60.53L162.47 65.09L163.83 65.09Z" fill="#3F3F3F" fill-opacity="1.000000" fill-rule="nonzero"/>
	<path id="Vector" d="M176.64 60.28L176.88 60.28L176.88 66.23C176.88 68.74 175.66 69.99 173.23 69.99C172.52 69.99 171.9 69.89 171.37 69.7C170.84 69.49 170.43 69.12 170.14 68.58C169.86 68.04 169.72 67.26 169.72 66.23L169.72 60.28L170.26 60.28L170.26 66.23C170.26 67.05 170.36 67.71 170.56 68.2C170.76 68.69 171.08 69.05 171.55 69.28C172.02 69.5 172.65 69.61 173.44 69.61C173.87 69.61 174.27 69.57 174.66 69.47C175.04 69.37 175.38 69.19 175.68 68.94C175.97 68.68 176.21 68.32 176.37 67.87C176.55 67.41 176.64 66.82 176.64 66.1L176.64 60.28Z" fill="#3F3F3F" fill-opacity="1.000000" fill-rule="nonzero"/>
	<path id="Vector" d="M185 60.28L185 60.53L181.81 60.53L181.81 69.74L181.29 69.74L181.29 60.53L178.1 60.53L178.1 60.28L185 60.28Z" fill="#3F3F3F" fill-opacity="1.000000" fill-rule="nonzero"/>
</svg>
