<svg width="341.000000" height="197.332031" viewBox="0 0 341 197.332" fill="none" xmlns="http://www.w3.org/2000/svg" xmlns:xlink="http://www.w3.org/1999/xlink">
	<desc>
			Created with Pixso.
	</desc>
	<defs/>
	<path id="Vector 9" d="M110.88 195.7L110.88 177.88C110.88 177.33 111.33 176.88 111.88 176.88L113.42 176.88C113.97 176.88 114.42 177.33 114.42 177.88L114.42 183.24C114.42 184.14 115.52 184.58 116.14 183.93L122.62 177.19C122.81 176.99 123.07 176.88 123.34 176.88L124.66 176.88C125.51 176.88 125.97 177.87 125.43 178.52L119.86 185.15C119.57 185.49 119.55 185.98 119.8 186.35L125.75 195.14C126.2 195.8 125.72 196.7 124.92 196.7L123.43 196.7C123.11 196.7 122.8 196.54 122.62 196.28L117.19 188.74C116.84 188.27 116.16 188.19 115.72 188.57L114.05 190.03C113.84 190.22 113.71 190.49 113.71 190.78L113.71 195.7C113.71 196.25 113.27 196.7 112.71 196.7L111.88 196.7C111.33 196.7 110.88 196.25 110.88 195.7Z" fill="#3F3F3F" fill-opacity="1.000000" fill-rule="nonzero"/>
	<path id="Vector 9" d="M110.88 195.7C110.88 196.25 111.33 196.7 111.88 196.7L112.71 196.7C113.27 196.7 113.71 196.25 113.71 195.7L113.71 190.78C113.71 190.49 113.84 190.22 114.05 190.03L115.72 188.57C116.16 188.19 116.84 188.27 117.19 188.74L122.62 196.28C122.8 196.54 123.11 196.7 123.43 196.7L124.92 196.7C125.72 196.7 126.2 195.8 125.75 195.14L119.8 186.35C119.55 185.98 119.57 185.49 119.86 185.15L125.43 178.52C125.97 177.87 125.51 176.88 124.66 176.88L123.34 176.88C123.07 176.88 122.81 176.99 122.62 177.19L116.14 183.93C115.52 184.58 114.42 184.14 114.42 183.24L114.42 177.88C114.42 177.33 113.97 176.88 113.42 176.88L111.88 176.88C111.33 176.88 110.88 177.33 110.88 177.88L110.88 195.7Z" stroke="#3F3F3F" stroke-opacity="1.000000" stroke-width="1.000000"/>
	<path id="Vector 12" d="M146.1 159.16C144.6 159.16 144.6 156.59 146.1 156.59C146.85 156.59 148.04 156.47 148.75 156.33C150.62 155.96 150.84 153.78 150.97 152.55L150.97 152.55L151.72 118.77C151.58 113.5 146.85 113.26 144.98 112.16C143.48 111.27 144.35 110.57 144.98 110.32L154.34 110.32C155.54 110.32 156.09 111.05 156.21 111.42L173.07 147.04C173.88 148.54 174.94 147.84 175.32 147.04L192.54 111.42C192.92 110.69 193.67 110.32 194.04 110.32L201.91 110.32C203.96 110.32 203.61 113.15 201.91 113.26C201.16 113.3 200.16 113.5 199.66 113.62C198.46 113.92 197.79 114.73 197.79 115.83L198.91 153.65C199.01 155.27 199.72 155.62 200.41 155.85C201.84 156.33 203.58 156.79 204.9 157.04C206.79 157.39 206.44 159.16 204.9 159.16L188.42 159.16C186.62 159.16 186.62 156.59 188.42 156.59L189.92 156.59C192.02 156.3 192.54 154.75 192.54 154.02L191.8 124.64C191.8 124.32 191.22 123.77 190.67 124.64L174.57 156.96C173.52 158.81 172.46 158.1 171.94 156.96L156.96 126.48C156.18 125.18 155.09 125.54 155.09 126.48L155.09 152.92C155.09 154.39 156.34 155.49 156.96 155.85C157.59 156.22 159.62 156.64 160.71 156.96C162.2 157.39 161.85 159.16 160.71 159.16L146.1 159.16Z" fill="#3F3F3F" fill-opacity="1.000000" fill-rule="nonzero"/>
	<path id="Vector 12" d="M146.1 159.16L160.71 159.16C161.85 159.16 162.2 157.39 160.71 156.96C159.62 156.64 157.59 156.22 156.96 155.85C156.34 155.49 155.09 154.39 155.09 152.92L155.09 126.48C155.09 125.54 156.18 125.18 156.96 126.48L171.94 156.96C172.46 158.1 173.52 158.81 174.57 156.96L190.67 124.64C191.22 123.77 191.8 124.32 191.8 124.64L192.54 154.02C192.54 154.75 192.02 156.3 189.92 156.59L188.42 156.59C186.62 156.59 186.62 159.16 188.42 159.16L204.9 159.16C206.44 159.16 206.79 157.39 204.9 157.04C203.58 156.79 201.84 156.33 200.41 155.85C199.72 155.62 199.01 155.27 198.91 153.65L197.79 115.83C197.79 114.73 198.46 113.92 199.66 113.62C200.16 113.5 201.16 113.3 201.91 113.26C203.61 113.15 203.96 110.32 201.91 110.32L194.04 110.32C193.67 110.32 192.92 110.69 192.54 111.42L175.32 147.04C174.94 147.84 173.88 148.54 173.07 147.04L156.21 111.42C156.09 111.05 155.54 110.32 154.34 110.32L144.98 110.32C144.35 110.57 143.48 111.27 144.98 112.16C146.85 113.26 151.58 113.5 151.72 118.77L150.97 152.55C150.84 153.78 150.62 155.96 148.75 156.33C148.04 156.47 146.85 156.59 146.1 156.59C144.6 156.59 144.6 159.16 146.1 159.16Z" stroke="#3F3F3F" stroke-opacity="1.000000" stroke-width="1.000000"/>
	<path id="Vector 13" d="M120.41 156.94C119.02 157.68 119.71 159.16 120.41 159.16L136.74 159.16C137.57 159.16 137.78 158.42 137.78 158.05C137.78 157.16 137.07 157.04 136.74 156.94C135.4 156.55 134.16 156.52 133.26 156.2C131.6 155.61 130.95 152.5 130.83 151.02L130.83 116.61C130.83 114.54 132.45 113.53 133.26 113.28C135.21 112.69 135.7 112.05 135.7 111.8C135.98 110.62 134.65 110.32 133.96 110.32L119.71 110.32C118.88 110.32 118.67 111.06 118.67 111.43C118.67 112.32 119.37 112.78 119.71 112.91L122.15 112.91C124.09 112.91 124.58 114.39 124.58 115.13L124.58 153.24C124.3 154.72 123.07 155.83 122.49 156.2C121.94 156.5 120.87 156.82 120.41 156.94Z" fill="#3F3F3F" fill-opacity="1.000000" fill-rule="nonzero"/>
	<path id="Vector 13" d="M120.41 156.94C120.87 156.82 121.94 156.5 122.49 156.2C123.07 155.83 124.3 154.72 124.58 153.24L124.58 115.13C124.58 114.39 124.09 112.91 122.15 112.91L119.71 112.91C119.37 112.78 118.67 112.32 118.67 111.43C118.67 111.06 118.88 110.32 119.71 110.32L133.96 110.32C134.65 110.32 135.98 110.62 135.7 111.8C135.7 112.05 135.21 112.69 133.26 113.28C132.45 113.53 130.83 114.54 130.83 116.61L130.83 151.02C130.95 152.5 131.6 155.61 133.26 156.2C134.16 156.52 135.4 156.55 136.74 156.94C137.07 157.04 137.78 157.16 137.78 158.05C137.78 158.42 137.57 159.16 136.74 159.16L120.41 159.16C119.71 159.16 119.02 157.68 120.41 156.94Z" stroke="#3F3F3F" stroke-opacity="1.000000" stroke-width="1.000000"/>
	<path id="Vector 14" d="M26.29 144.93C25.58 143.24 23.82 144.22 23.82 145.28C24.38 152.08 25.47 154.09 26.29 154.91C28.42 157.04 31.6 158.37 33.73 158.73C36.56 159.2 38.69 159.25 40.45 159.09C44.34 158.73 46.94 157.67 48.24 156.96C51.92 154.98 53.29 153.14 54.61 150.59C56.02 147.84 56.23 144.15 55.67 141.03C55.1 137.92 52.25 135.49 51.07 134.66C49.09 132.96 43.87 131.12 41.51 130.42C38.68 129.57 35.49 128.37 33.02 126.52C30.54 124.75 29.95 121.69 30.19 120.15C30.54 116.97 32.31 115.63 33.73 114.84C37.62 112.72 43.75 114.25 45.76 115.2C50.01 116.9 51.42 121.57 52.13 123.69C52.48 124.4 53.19 124.12 53.54 123.69C55.01 121.91 53.31 115.32 52.84 112.72C52.63 111.59 51.78 111.38 51.07 112.37C50.65 112.95 50.01 112.84 49.65 112.72L45.05 111.38C40.8 110.4 36.91 110.59 35.14 111.03C30.54 112.17 28.24 114.74 27 116.97C25.23 120.15 25.03 124.05 25.58 126.52C26.29 129.71 29.48 132.33 31.6 133.6C33.37 134.66 36.67 136.2 38.33 136.79C43.28 138.56 46.94 140.21 48.24 141.03C50.58 142.53 50.92 144.3 51.07 145.64C51.42 148.9 50.64 151.02 48.94 152.71C45.55 156.11 39.27 155.78 36.56 155.19C30.19 154.21 27.58 148 26.29 144.93Z" fill="#3F3F3F" fill-opacity="1.000000" fill-rule="nonzero"/>
	<path id="Vector 14" d="M26.29 144.93C27.58 148 30.19 154.21 36.56 155.19C39.27 155.78 45.55 156.11 48.94 152.71C50.64 151.02 51.42 148.9 51.07 145.64C50.92 144.3 50.58 142.53 48.24 141.03C46.94 140.21 43.28 138.56 38.33 136.79C36.67 136.2 33.37 134.66 31.6 133.6C29.48 132.33 26.29 129.71 25.58 126.52C25.03 124.05 25.23 120.15 27 116.97C28.24 114.74 30.54 112.17 35.14 111.03C36.91 110.59 40.8 110.4 45.05 111.38L49.65 112.72C50.01 112.84 50.65 112.95 51.07 112.37C51.78 111.38 52.63 111.59 52.84 112.72C53.31 115.32 55.01 121.91 53.54 123.69C53.19 124.12 52.48 124.4 52.13 123.69C51.42 121.57 50.01 116.9 45.76 115.2C43.75 114.25 37.62 112.72 33.73 114.84C32.31 115.63 30.54 116.97 30.19 120.15C29.95 121.69 30.54 124.75 33.02 126.52C35.49 128.37 38.68 129.57 41.51 130.42C43.87 131.12 49.09 132.96 51.07 134.66C52.25 135.49 55.1 137.92 55.67 141.03C56.23 144.15 56.02 147.84 54.61 150.59C53.29 153.14 51.92 154.98 48.24 156.96C46.94 157.67 44.34 158.73 40.45 159.09C38.69 159.25 36.56 159.2 33.73 158.73C31.6 158.37 28.42 157.04 26.29 154.91C25.47 154.09 24.38 152.08 23.82 145.28C23.82 144.22 25.58 143.24 26.29 144.93Z" stroke="#3F3F3F" stroke-opacity="1.000000" stroke-width="1.000000"/>
	<path id="Vector 16" d="M216.35 195.68L216.35 181.04C216.35 180.49 215.9 180.04 215.35 180.04L210.98 180.04C210.43 180.04 209.98 179.6 209.98 179.04L209.98 177.86C209.98 177.31 210.43 176.86 210.98 176.86L225.26 176.86C225.81 176.86 226.26 177.31 226.26 177.86L226.26 179.04C226.26 179.6 225.81 180.04 225.26 180.04L220.89 180.04C220.34 180.04 219.89 180.49 219.89 181.04L219.89 195.68C219.89 196.23 219.44 196.68 218.89 196.68L217.35 196.68C216.8 196.68 216.35 196.23 216.35 195.68Z" fill="#3F3F3F" fill-opacity="1.000000" fill-rule="nonzero"/>
	<path id="Vector 16" d="M216.35 195.68C216.35 196.23 216.8 196.68 217.35 196.68L218.89 196.68C219.44 196.68 219.89 196.23 219.89 195.68L219.89 181.04C219.89 180.49 220.34 180.04 220.89 180.04L225.26 180.04C225.81 180.04 226.26 179.6 226.26 179.04L226.26 177.86C226.26 177.31 225.81 176.86 225.26 176.86L210.98 176.86C210.43 176.86 209.98 177.31 209.98 177.86L209.98 179.04C209.98 179.6 210.43 180.04 210.98 180.04L215.35 180.04C215.9 180.04 216.35 180.49 216.35 181.04L216.35 195.68Z" stroke="#3F3F3F" stroke-opacity="1.000000" stroke-width="1.000000"/>
	<mask id="mask_325_123" fill="white">
		<path id="Exclude" d="M75.0316 159.164L60.447 159.164C59.5562 159.164 59.5894 157.547 62.2256 156.996C63.8659 156.652 64.2252 155.215 65.0714 153.742L84.636 111.426C85.7032 109.617 87.4819 110.34 87.8376 111.426L103.845 149.402C104.556 151.211 106.054 154.445 107.047 155.551C108.039 156.652 109.834 157.012 111.315 157.355C112.707 157.73 112.348 159.164 111.315 159.164L95.3077 159.164C94.3918 159.164 94.3918 157.73 95.3077 157.355C96.1364 157.02 97.0466 156.59 97.4421 156.273C98.2722 155.605 98.1533 154.824 97.4421 153.016L93.8848 142.891C93.5289 141.805 92.8174 141.082 91.7505 141.082L77.8773 141.082C75.6007 141.082 75.0313 142.527 74.3201 143.977L71.8301 149.762C71.1198 151.566 70.9456 152.273 70.764 153.012L70.7629 153.016C70.4069 154.465 70.4072 155.066 70.7629 155.551C71.1187 156.031 73.6087 156.996 75.0316 157.355C76.0984 157.719 75.7427 159.164 75.0316 159.164ZM77.9226 134.504C77.5131 135.465 77.1537 136.543 79 136.66L90.8513 136.66C91.5695 136.66 92.7906 136.227 91.9286 134.504L86.1318 120.379C85.4136 118.945 84.3362 120.02 84.0278 120.855L77.9226 134.504Z" clip-rule="evenodd" fill="" fill-opacity="1.000000" fill-rule="evenodd"/>
	</mask>
	<path id="Exclude" d="M75.0316 159.164L60.447 159.164C59.5562 159.164 59.5894 157.547 62.2256 156.996C63.8659 156.652 64.2252 155.215 65.0714 153.742L84.636 111.426C85.7032 109.617 87.4819 110.34 87.8376 111.426L103.845 149.402C104.556 151.211 106.054 154.445 107.047 155.551C108.039 156.652 109.834 157.012 111.315 157.355C112.707 157.73 112.348 159.164 111.315 159.164L95.3077 159.164C94.3918 159.164 94.3918 157.73 95.3077 157.355C96.1364 157.02 97.0466 156.59 97.4421 156.273C98.2722 155.605 98.1533 154.824 97.4421 153.016L93.8848 142.891C93.5289 141.805 92.8174 141.082 91.7505 141.082L77.8773 141.082C75.6007 141.082 75.0313 142.527 74.3201 143.977L71.8301 149.762C71.1198 151.566 70.9456 152.273 70.764 153.012L70.7629 153.016C70.4069 154.465 70.4072 155.066 70.7629 155.551C71.1187 156.031 73.6087 156.996 75.0316 157.355C76.0984 157.719 75.7427 159.164 75.0316 159.164ZM77.9226 134.504C77.5131 135.465 77.1537 136.543 79 136.66L90.8513 136.66C91.5695 136.66 92.7906 136.227 91.9286 134.504L86.1318 120.379C85.4136 118.945 84.3362 120.02 84.0278 120.855L77.9226 134.504Z" clip-rule="evenodd" fill="#3F3F3F" fill-opacity="1.000000" fill-rule="evenodd" mask="url(#mask_325_123)"/>
	<path id="Exclude" d="M75.0316 159.664L60.447 159.664Q60.15 159.664 59.9113 159.527Q59.6617 159.387 59.5321 159.129Q59.4106 158.891 59.4237 158.602Q59.4359 158.336 59.5626 158.07Q59.8144 157.547 60.4416 157.145Q61.1137 156.719 62.123 156.508Q62.5073 156.426 62.8058 156.242Q63.0756 156.078 63.3092 155.805Q63.5191 155.559 63.7396 155.18Q63.8802 154.938 64.1563 154.398Q64.4599 153.801 64.6377 153.492L65.0714 153.742L64.6175 153.531L84.1927 111.191L84.2054 111.172Q84.6558 110.41 85.3038 110.066Q85.9095 109.75 86.5755 109.848Q87.1757 109.934 87.6551 110.328Q88.1326 110.719 88.3127 111.27L87.8376 111.426L88.2983 111.23L104.308 149.211L104.31 149.219Q104.59 149.93 104.963 150.766Q105.373 151.688 105.787 152.516Q106.788 154.516 107.418 155.215Q107.954 155.812 109.036 156.219Q109.481 156.387 110.077 156.543Q110.437 156.641 111.155 156.809Q111.339 156.848 111.429 156.871L111.437 156.871L111.444 156.875Q112.098 157.051 112.442 157.488Q112.609 157.703 112.681 157.957Q112.75 158.203 112.722 158.457Q112.695 158.699 112.58 158.922Q112.466 159.141 112.28 159.309Q112.089 159.48 111.846 159.57Q111.595 159.664 111.315 159.664L95.3077 159.664Q95.0305 159.664 94.796 159.555Q94.5665 159.449 94.4049 159.25Q94.1208 158.902 94.1208 158.402Q94.1208 157.938 94.3661 157.535Q94.6397 157.09 95.1196 156.895Q95.7842 156.625 96.3145 156.359Q96.8926 156.074 97.1288 155.883Q97.3535 155.703 97.4423 155.52Q97.5278 155.344 97.5203 155.086Q97.5115 154.793 97.3787 154.336Q97.2537 153.906 96.9767 153.199L96.9734 153.191L93.4131 143.055Q93.1743 142.328 92.752 141.953Q92.335 141.582 91.7505 141.582L77.8773 141.582Q77.2006 141.582 76.7047 141.773Q76.2794 141.934 75.9476 142.258Q75.6561 142.539 75.382 143Q75.2072 143.297 74.8873 143.953Q74.8088 144.113 74.7689 144.195L74.3201 143.977L74.7794 144.172L72.2894 149.961L71.8301 149.762L72.2953 149.945Q71.8275 151.133 71.5759 151.938Q71.4255 152.418 71.2495 153.133L71.2484 153.137Q70.996 154.164 70.996 154.645Q70.996 154.859 71.0413 155.008Q71.0801 155.137 71.1653 155.254Q71.1815 155.273 71.2763 155.34Q71.4058 155.43 71.6161 155.543Q72.0378 155.77 72.6868 156.035Q73.306 156.289 73.9748 156.516Q74.64 156.742 75.1547 156.871L75.1736 156.879L75.1921 156.883Q75.7487 157.074 76.0168 157.547Q76.2494 157.957 76.1954 158.453Q76.1446 158.918 75.8671 159.254Q75.7136 159.438 75.5143 159.543Q75.286 159.664 75.0316 159.664ZM75.0316 158.664Q75.0547 158.664 75.0961 158.617Q75.183 158.512 75.2013 158.344Q75.2203 158.168 75.1465 158.039Q75.0663 157.898 74.871 157.832L75.0316 157.355L74.9084 157.844Q74.3559 157.703 73.6539 157.465Q72.9553 157.227 72.3073 156.961Q70.6953 156.301 70.3605 155.848Q70.173 155.59 70.0842 155.297Q69.996 155.008 69.996 154.645Q69.996 154.043 70.2774 152.898L70.2785 152.895Q70.462 152.148 70.6217 151.637Q70.8839 150.801 71.3648 149.578L71.3677 149.57L73.8658 143.766L73.8714 143.754Q73.9103 143.676 73.988 143.516Q74.326 142.82 74.5222 142.492Q74.8643 141.914 75.2515 141.539Q75.7305 141.074 76.3471 140.84Q77.0156 140.582 77.8773 140.582L91.7505 140.582Q92.7155 140.582 93.4166 141.207Q94.0404 141.762 94.3566 142.727L97.9138 152.852L97.4421 153.016L97.9073 152.836Q98.2011 153.582 98.3389 154.055Q98.5074 154.637 98.5198 155.059Q98.5345 155.559 98.3423 155.953Q98.1555 156.34 97.7552 156.664Q97.4349 156.918 96.7602 157.254Q96.1958 157.535 95.4958 157.82Q95.3207 157.891 95.2189 158.059Q95.1208 158.219 95.1208 158.402Q95.1208 158.547 95.1801 158.621Q95.2177 158.664 95.3077 158.664L111.315 158.664Q111.498 158.664 111.614 158.562Q111.714 158.473 111.728 158.348Q111.742 158.219 111.654 158.105Q111.516 157.93 111.186 157.84L111.315 157.355L111.201 157.844Q111.113 157.824 110.929 157.781Q110.196 157.613 109.82 157.512Q109.175 157.34 108.684 157.152Q107.374 156.66 106.675 155.883Q105.955 155.082 104.893 152.965Q104.468 152.113 104.049 151.172Q103.668 150.316 103.38 149.582L103.845 149.402L103.384 149.594L87.3688 111.602L87.3624 111.582Q87.2728 111.309 87.0196 111.102Q86.7557 110.883 86.4318 110.836Q86.0873 110.785 85.7692 110.953Q85.3727 111.16 85.0667 111.68L84.636 111.426L85.0899 111.637L65.516 153.969L65.505 153.988Q65.3396 154.277 65.0473 154.852Q64.7586 155.418 64.6041 155.684Q64.3375 156.141 64.0677 156.457Q63.3717 157.266 62.3282 157.484Q61.4974 157.66 60.979 157.988Q60.593 158.234 60.4647 158.504Q60.4255 158.586 60.4227 158.648Q60.4215 158.672 60.4247 158.68Q60.4189 158.668 60.4078 158.66Q60.4158 158.664 60.447 158.664L75.0316 158.664L75.0316 158.664ZM78.3826 134.699Q78.2053 135.117 78.1422 135.355Q78.0691 135.633 78.1035 135.789Q78.1737 136.105 79.0316 136.16L79 136.66L79 136.16L90.8513 136.16Q91.0799 136.16 91.2857 136.09Q91.4991 136.02 91.6088 135.895Q91.7217 135.77 91.725 135.559Q91.7303 135.227 91.4814 134.727L91.4731 134.711L85.6693 120.57L86.1318 120.379L85.6846 120.605Q85.5136 120.262 85.3478 120.191Q85.2664 120.156 85.1455 120.215Q84.9625 120.305 84.7773 120.539Q84.592 120.773 84.4969 121.031L84.4911 121.047L78.379 134.707L78.3826 134.699ZM77.4662 134.301L83.5714 120.652L84.0278 120.855L83.5588 120.684Q83.7094 120.277 83.9941 119.918Q84.3202 119.508 84.7067 119.316Q84.9487 119.199 85.1949 119.18Q85.4776 119.16 85.7391 119.27Q86.2435 119.484 86.579 120.156L86.5873 120.172L92.3912 134.312L91.9286 134.504L92.3759 134.281Q92.7341 134.996 92.7249 135.574Q92.7157 136.156 92.3563 136.559Q92.069 136.883 91.6019 137.039Q91.2422 137.16 90.8513 137.16L78.9842 137.16L78.9684 137.156Q78.1885 137.109 77.7369 136.836Q77.2458 136.539 77.1273 136.004Q77.0404 135.613 77.1749 135.102Q77.2567 134.789 77.4626 134.309L77.4662 134.301Z" fill="#3F3F3F" fill-opacity="1.000000" fill-rule="nonzero"/>
	<mask id="mask_325_126" fill="white">
		<path id="Exclude" d="M225.102 159.164L210.517 159.164C209.626 159.164 209.66 157.547 212.296 156.996C213.936 156.652 214.295 155.215 215.142 153.742L234.706 111.426C235.773 109.617 237.552 110.34 237.908 111.426L253.915 149.402C254.626 151.211 256.125 154.445 257.117 155.551C258.109 156.652 259.905 157.012 261.385 157.355C262.778 157.73 262.418 159.164 261.385 159.164L245.378 159.164C244.462 159.164 244.462 157.73 245.378 157.355C246.207 157.02 247.117 156.59 247.512 156.273C248.342 155.605 248.223 154.824 247.512 153.016L243.955 142.891C243.599 141.805 242.888 141.082 241.821 141.082L227.948 141.082C225.671 141.082 225.102 142.527 224.39 143.977L221.9 149.762C221.19 151.566 221.016 152.273 220.834 153.012L220.833 153.016C220.477 154.465 220.477 155.066 220.833 155.551C221.189 156.031 223.679 156.996 225.102 157.355C226.169 157.719 225.813 159.164 225.102 159.164ZM227.993 134.504C227.583 135.465 227.224 136.543 229.07 136.66L240.921 136.66C241.64 136.66 242.861 136.227 241.999 134.504L236.202 120.379C235.484 118.945 234.406 120.02 234.098 120.855L227.993 134.504Z" clip-rule="evenodd" fill="" fill-opacity="1.000000" fill-rule="evenodd"/>
	</mask>
	<path id="Exclude" d="M225.102 159.164L210.517 159.164C209.626 159.164 209.66 157.547 212.296 156.996C213.936 156.652 214.295 155.215 215.142 153.742L234.706 111.426C235.773 109.617 237.552 110.34 237.908 111.426L253.915 149.402C254.626 151.211 256.125 154.445 257.117 155.551C258.109 156.652 259.905 157.012 261.385 157.355C262.778 157.73 262.418 159.164 261.385 159.164L245.378 159.164C244.462 159.164 244.462 157.73 245.378 157.355C246.207 157.02 247.117 156.59 247.512 156.273C248.342 155.605 248.223 154.824 247.512 153.016L243.955 142.891C243.599 141.805 242.888 141.082 241.821 141.082L227.948 141.082C225.671 141.082 225.102 142.527 224.39 143.977L221.9 149.762C221.19 151.566 221.016 152.273 220.834 153.012L220.833 153.016C220.477 154.465 220.477 155.066 220.833 155.551C221.189 156.031 223.679 156.996 225.102 157.355C226.169 157.719 225.813 159.164 225.102 159.164ZM227.993 134.504C227.583 135.465 227.224 136.543 229.07 136.66L240.921 136.66C241.64 136.66 242.861 136.227 241.999 134.504L236.202 120.379C235.484 118.945 234.406 120.02 234.098 120.855L227.993 134.504Z" clip-rule="evenodd" fill="#3F3F3F" fill-opacity="1.000000" fill-rule="evenodd" mask="url(#mask_325_126)"/>
	<path id="Exclude" d="M225.102 159.664L210.517 159.664Q210.22 159.664 209.981 159.527Q209.732 159.387 209.602 159.129Q209.481 158.891 209.494 158.602Q209.506 158.336 209.633 158.07Q209.885 157.547 210.512 157.145Q211.184 156.719 212.193 156.508Q212.577 156.426 212.876 156.242Q213.146 156.078 213.379 155.805Q213.589 155.559 213.81 155.18Q213.95 154.938 214.227 154.398Q214.53 153.801 214.708 153.492L215.142 153.742L214.688 153.531L234.263 111.191L234.276 111.172Q234.726 110.41 235.374 110.066Q235.98 109.75 236.646 109.848Q237.246 109.934 237.725 110.328Q238.203 110.719 238.383 111.27L237.908 111.426L238.368 111.23L254.378 149.211L254.381 149.219Q254.661 149.93 255.033 150.766Q255.443 151.688 255.858 152.516Q256.859 154.516 257.488 155.215Q258.025 155.812 259.107 156.219Q259.551 156.387 260.147 156.543Q260.508 156.641 261.225 156.809Q261.409 156.848 261.499 156.871L261.507 156.871L261.514 156.875Q262.169 157.051 262.512 157.488Q262.679 157.703 262.751 157.957Q262.82 158.203 262.792 158.457Q262.765 158.699 262.65 158.922Q262.536 159.141 262.35 159.309Q262.159 159.48 261.916 159.57Q261.665 159.664 261.385 159.664L245.378 159.664Q245.101 159.664 244.866 159.555Q244.637 159.449 244.475 159.25Q244.191 158.902 244.191 158.402Q244.191 157.938 244.436 157.535Q244.71 157.09 245.19 156.895Q245.854 156.625 246.385 156.359Q246.963 156.074 247.199 155.883Q247.424 155.703 247.512 155.52Q247.598 155.344 247.59 155.086Q247.582 154.793 247.449 154.336Q247.324 153.906 247.047 153.199L247.044 153.191L243.483 143.055Q243.245 142.328 242.822 141.953Q242.405 141.582 241.821 141.582L227.948 141.582Q227.271 141.582 226.775 141.773Q226.35 141.934 226.018 142.258Q225.726 142.539 225.452 143Q225.277 143.297 224.958 143.953Q224.879 144.113 224.839 144.195L224.39 143.977L224.85 144.172L222.36 149.961L221.9 149.762L222.366 149.945Q221.898 151.133 221.646 151.938Q221.496 152.418 221.32 153.133L221.319 153.137Q221.066 154.164 221.066 154.645Q221.066 154.859 221.112 155.008Q221.15 155.137 221.235 155.254Q221.252 155.273 221.346 155.34Q221.476 155.43 221.686 155.543Q222.108 155.77 222.757 156.035Q223.376 156.289 224.045 156.516Q224.71 156.742 225.225 156.871L225.244 156.879L225.262 156.883Q225.819 157.074 226.087 157.547Q226.32 157.957 226.266 158.453Q226.215 158.918 225.937 159.254Q225.784 159.438 225.584 159.543Q225.356 159.664 225.102 159.664ZM225.102 158.664Q225.125 158.664 225.166 158.617Q225.253 158.512 225.271 158.344Q225.29 158.168 225.217 158.039Q225.137 157.898 224.941 157.832L225.102 157.355L224.979 157.844Q224.426 157.703 223.724 157.465Q223.026 157.227 222.377 156.961Q220.766 156.301 220.431 155.848Q220.243 155.59 220.154 155.297Q220.066 155.008 220.066 154.645Q220.066 154.043 220.348 152.898L220.349 152.895Q220.532 152.148 220.692 151.637Q220.954 150.801 221.435 149.578L221.438 149.57L223.936 143.766L223.942 143.754Q223.98 143.676 224.058 143.516Q224.396 142.82 224.592 142.492Q224.935 141.914 225.322 141.539Q225.801 141.074 226.417 140.84Q227.086 140.582 227.948 140.582L241.821 140.582Q242.786 140.582 243.487 141.207Q244.111 141.762 244.427 142.727L247.984 152.852L247.512 153.016L247.978 152.836Q248.271 153.582 248.409 154.055Q248.578 154.637 248.59 155.059Q248.605 155.559 248.413 155.953Q248.226 156.34 247.825 156.664Q247.505 156.918 246.83 157.254Q246.266 157.535 245.566 157.82Q245.391 157.891 245.289 158.059Q245.191 158.219 245.191 158.402Q245.191 158.547 245.25 158.621Q245.288 158.664 245.378 158.664L261.385 158.664Q261.568 158.664 261.684 158.562Q261.784 158.473 261.798 158.348Q261.812 158.219 261.724 158.105Q261.587 157.93 261.256 157.84L261.385 157.355L261.271 157.844Q261.183 157.824 260.999 157.781Q260.266 157.613 259.89 157.512Q259.246 157.34 258.754 157.152Q257.444 156.66 256.745 155.883Q256.025 155.082 254.964 152.965Q254.538 152.113 254.119 151.172Q253.738 150.316 253.45 149.582L253.915 149.402L253.455 149.594L237.439 111.602L237.433 111.582Q237.343 111.309 237.09 111.102Q236.826 110.883 236.502 110.836Q236.158 110.785 235.839 110.953Q235.443 111.16 235.137 111.68L234.706 111.426L235.16 111.637L215.586 153.969L215.575 153.988Q215.41 154.277 215.118 154.852Q214.829 155.418 214.674 155.684Q214.408 156.141 214.138 156.457Q213.442 157.266 212.398 157.484Q211.568 157.66 211.049 157.988Q210.663 158.234 210.535 158.504Q210.496 158.586 210.493 158.648Q210.492 158.672 210.495 158.68Q210.489 158.668 210.478 158.66Q210.486 158.664 210.517 158.664L225.102 158.664L225.102 158.664ZM228.453 134.699Q228.276 135.117 228.212 135.355Q228.139 135.633 228.174 135.789Q228.244 136.105 229.102 136.16L229.07 136.66L229.07 136.16L240.921 136.16Q241.15 136.16 241.356 136.09Q241.569 136.02 241.679 135.895Q241.792 135.77 241.795 135.559Q241.801 135.227 241.552 134.727L241.543 134.711L235.739 120.57L236.202 120.379L235.755 120.605Q235.584 120.262 235.418 120.191Q235.337 120.156 235.216 120.215Q235.033 120.305 234.847 120.539Q234.662 120.773 234.567 121.031L234.561 121.047L228.449 134.707L228.453 134.699ZM227.536 134.301L233.642 120.652L234.098 120.855L233.629 120.684Q233.78 120.277 234.064 119.918Q234.39 119.508 234.777 119.316Q235.019 119.199 235.265 119.18Q235.548 119.16 235.809 119.27Q236.314 119.484 236.649 120.156L236.658 120.172L242.461 134.312L241.999 134.504L242.446 134.281Q242.804 134.996 242.795 135.574Q242.786 136.156 242.426 136.559Q242.139 136.883 241.672 137.039Q241.312 137.16 240.921 137.16L229.054 137.16L229.039 137.156Q228.259 137.109 227.807 136.836Q227.316 136.539 227.197 136.004Q227.111 135.613 227.245 135.102Q227.327 134.789 227.533 134.309L227.536 134.301Z" fill="#3F3F3F" fill-opacity="1.000000" fill-rule="nonzero"/>
	<mask id="mask_325_129" fill="white">
		<path id="Exclude" d="M281.015 159.164L266.431 159.164C265.54 159.164 265.573 157.547 268.209 156.996C269.85 156.652 270.209 155.215 271.055 153.742L290.62 111.426C291.687 109.617 293.466 110.34 293.821 111.426L309.829 149.402C310.54 151.211 312.038 154.445 313.03 155.551C314.022 156.652 315.818 157.012 317.299 157.355C318.691 157.73 318.332 159.164 317.299 159.164L301.292 159.164C300.376 159.164 300.376 157.73 301.292 157.355C302.12 157.02 303.03 156.59 303.426 156.273C304.256 155.605 304.137 154.824 303.426 153.016L299.869 142.891C299.513 141.805 298.801 141.082 297.734 141.082L283.861 141.082C281.584 141.082 281.015 142.527 280.304 143.977L277.814 149.762C277.104 151.566 276.929 152.273 276.748 153.012L276.747 153.016C276.391 154.465 276.391 155.066 276.747 155.551C277.102 156.031 279.592 156.996 281.015 157.355C282.082 157.719 281.727 159.164 281.015 159.164ZM283.906 134.504C283.497 135.465 283.137 136.543 284.984 136.66L296.835 136.66C297.553 136.66 298.774 136.227 297.912 134.504L292.116 120.379C291.397 118.945 290.32 120.02 290.012 120.855L283.906 134.504Z" clip-rule="evenodd" fill="" fill-opacity="1.000000" fill-rule="evenodd"/>
	</mask>
	<path id="Exclude" d="M281.015 159.164L266.431 159.164C265.54 159.164 265.573 157.547 268.209 156.996C269.85 156.652 270.209 155.215 271.055 153.742L290.62 111.426C291.687 109.617 293.466 110.34 293.821 111.426L309.829 149.402C310.54 151.211 312.038 154.445 313.03 155.551C314.022 156.652 315.818 157.012 317.299 157.355C318.691 157.73 318.332 159.164 317.299 159.164L301.292 159.164C300.376 159.164 300.376 157.73 301.292 157.355C302.12 157.02 303.03 156.59 303.426 156.273C304.256 155.605 304.137 154.824 303.426 153.016L299.869 142.891C299.513 141.805 298.801 141.082 297.734 141.082L283.861 141.082C281.584 141.082 281.015 142.527 280.304 143.977L277.814 149.762C277.104 151.566 276.929 152.273 276.748 153.012L276.747 153.016C276.391 154.465 276.391 155.066 276.747 155.551C277.102 156.031 279.592 156.996 281.015 157.355C282.082 157.719 281.727 159.164 281.015 159.164ZM283.906 134.504C283.497 135.465 283.137 136.543 284.984 136.66L296.835 136.66C297.553 136.66 298.774 136.227 297.912 134.504L292.116 120.379C291.397 118.945 290.32 120.02 290.012 120.855L283.906 134.504Z" clip-rule="evenodd" fill="#3F3F3F" fill-opacity="1.000000" fill-rule="evenodd" mask="url(#mask_325_129)"/>
	<path id="Exclude" d="M281.015 159.664L266.431 159.664Q266.134 159.664 265.895 159.527Q265.645 159.387 265.516 159.129Q265.394 158.891 265.407 158.602Q265.42 158.336 265.546 158.07Q265.798 157.547 266.425 157.145Q267.098 156.719 268.107 156.508Q268.491 156.426 268.79 156.242Q269.059 156.078 269.293 155.805Q269.503 155.559 269.723 155.18Q269.864 154.938 270.14 154.398Q270.444 153.801 270.621 153.492L271.055 153.742L270.601 153.531L290.177 111.191L290.189 111.172Q290.64 110.41 291.288 110.066Q291.893 109.75 292.559 109.848Q293.159 109.934 293.639 110.328Q294.116 110.719 294.296 111.27L293.821 111.426L294.282 111.23L310.292 149.211L310.294 149.219Q310.574 149.93 310.946 150.766Q311.356 151.688 311.771 152.516Q312.772 154.516 313.402 155.215Q313.938 155.812 315.02 156.219Q315.465 156.387 316.061 156.543Q316.421 156.641 317.138 156.809Q317.322 156.848 317.413 156.871L317.42 156.871L317.428 156.875Q318.082 157.051 318.426 157.488Q318.593 157.703 318.664 157.957Q318.733 158.203 318.705 158.457Q318.678 158.699 318.564 158.922Q318.45 159.141 318.264 159.309Q318.072 159.48 317.829 159.57Q317.578 159.664 317.299 159.664L301.292 159.664Q301.014 159.664 300.78 159.555Q300.55 159.449 300.389 159.25Q300.105 158.902 300.105 158.402Q300.105 157.938 300.35 157.535Q300.623 157.09 301.103 156.895Q301.768 156.625 302.298 156.359Q302.876 156.074 303.113 155.883Q303.337 155.703 303.426 155.52Q303.512 155.344 303.504 155.086Q303.495 154.793 303.362 154.336Q303.237 153.906 302.961 153.199L302.957 153.191L299.397 143.055Q299.158 142.328 298.736 141.953Q298.319 141.582 297.734 141.582L283.861 141.582Q283.184 141.582 282.688 141.773Q282.263 141.934 281.931 142.258Q281.64 142.539 281.366 143Q281.191 143.297 280.871 143.953Q280.793 144.113 280.753 144.195L280.304 143.977L280.763 144.172L278.273 149.961L277.814 149.762L278.279 149.945Q277.811 151.133 277.56 151.938Q277.409 152.418 277.233 153.133L277.232 153.137Q276.98 154.164 276.98 154.645Q276.98 154.859 277.025 155.008Q277.064 155.137 277.149 155.254Q277.165 155.273 277.26 155.34Q277.39 155.43 277.6 155.543Q278.022 155.77 278.671 156.035Q279.29 156.289 279.959 156.516Q280.624 156.742 281.138 156.871L281.157 156.879L281.176 156.883Q281.732 157.074 282.001 157.547Q282.233 157.957 282.179 158.453Q282.128 158.918 281.851 159.254Q281.697 159.438 281.498 159.543Q281.27 159.664 281.015 159.664ZM281.015 158.664Q281.039 158.664 281.08 158.617Q281.167 158.512 281.185 158.344Q281.204 158.168 281.13 158.039Q281.05 157.898 280.855 157.832L281.015 157.355L280.892 157.844Q280.34 157.703 279.638 157.465Q278.939 157.227 278.291 156.961Q276.679 156.301 276.344 155.848Q276.157 155.59 276.068 155.297Q275.98 155.008 275.98 154.645Q275.98 154.043 276.261 152.898L276.262 152.895Q276.446 152.148 276.605 151.637Q276.868 150.801 277.349 149.578L277.351 149.57L279.85 143.766L279.855 143.754Q279.894 143.676 279.972 143.516Q280.31 142.82 280.506 142.492Q280.848 141.914 281.235 141.539Q281.714 141.074 282.331 140.84Q282.999 140.582 283.861 140.582L297.734 140.582Q298.699 140.582 299.4 141.207Q300.024 141.762 300.34 142.727L303.898 152.852L303.426 153.016L303.891 152.836Q304.185 153.582 304.323 154.055Q304.491 154.637 304.504 155.059Q304.518 155.559 304.326 155.953Q304.139 156.34 303.739 156.664Q303.419 156.918 302.744 157.254Q302.18 157.535 301.48 157.82Q301.304 157.891 301.203 158.059Q301.105 158.219 301.105 158.402Q301.105 158.547 301.164 158.621Q301.201 158.664 301.292 158.664L317.299 158.664Q317.482 158.664 317.597 158.562Q317.697 158.473 317.711 158.348Q317.726 158.219 317.637 158.105Q317.5 157.93 317.17 157.84L317.299 157.355L317.185 157.844Q317.097 157.824 316.913 157.781Q316.18 157.613 315.803 157.512Q315.159 157.34 314.667 157.152Q313.358 156.66 312.659 155.883Q311.939 155.082 310.877 152.965Q310.452 152.113 310.033 151.172Q309.652 150.316 309.364 149.582L309.829 149.402L309.368 149.594L293.353 111.602L293.346 111.582Q293.257 111.309 293.003 111.102Q292.74 110.883 292.416 110.836Q292.071 110.785 291.753 110.953Q291.356 111.16 291.05 111.68L290.62 111.426L291.074 111.637L271.5 153.969L271.489 153.988Q271.323 154.277 271.031 154.852Q270.742 155.418 270.588 155.684Q270.321 156.141 270.051 156.457Q269.355 157.266 268.312 157.484Q267.481 157.66 266.963 157.988Q266.577 158.234 266.448 158.504Q266.409 158.586 266.406 158.648Q266.405 158.672 266.408 158.68Q266.403 158.668 266.392 158.66Q266.4 158.664 266.431 158.664L281.015 158.664L281.015 158.664ZM284.366 134.699Q284.189 135.117 284.126 135.355Q284.053 135.633 284.087 135.789Q284.157 136.105 285.015 136.16L284.984 136.66L284.984 136.16L296.835 136.16Q297.064 136.16 297.269 136.09Q297.483 136.02 297.593 135.895Q297.705 135.77 297.709 135.559Q297.714 135.227 297.465 134.727L297.457 134.711L291.653 120.57L292.116 120.379L291.668 120.605Q291.497 120.262 291.332 120.191Q291.25 120.156 291.129 120.215Q290.946 120.305 290.761 120.539Q290.576 120.773 290.481 121.031L290.475 121.047L284.363 134.707L284.366 134.699ZM283.45 134.301L289.555 120.652L290.012 120.855L289.543 120.684Q289.693 120.277 289.978 119.918Q290.304 119.508 290.69 119.316Q290.932 119.199 291.179 119.18Q291.461 119.16 291.723 119.27Q292.227 119.484 292.563 120.156L292.571 120.172L298.375 134.312L297.912 134.504L298.36 134.281Q298.718 134.996 298.709 135.574Q298.699 136.156 298.34 136.559Q298.053 136.883 297.586 137.039Q297.226 137.16 296.835 137.16L284.968 137.16L284.952 137.156Q284.172 137.109 283.721 136.836Q283.23 136.539 283.111 136.004Q283.024 135.613 283.159 135.102Q283.24 134.789 283.446 134.309L283.45 134.301Z" fill="#3F3F3F" fill-opacity="1.000000" fill-rule="nonzero"/>
	<mask id="mask_325_132" fill="white">
		<path id="Exclude" d="M141.673 196.688C137.78 196.688 135.778 195.805 133.887 193.965C131.409 191.559 131.527 188.379 131.409 186.785C131.409 179.586 137.426 176.867 141.673 176.867C149.624 176.867 151.583 183.691 151.583 186.785C151.583 190.875 150.167 192.613 148.751 193.965C147.336 195.32 145.566 196.688 141.673 196.688ZM136.287 190.812C136.899 191.746 138.857 193.262 141.792 193.262C142.893 193.262 145.413 192.801 147.081 190.812C148.75 188.824 148.994 185.398 147.081 182.719C145.918 181.09 143.277 180.012 141.058 180.312C138.84 180.617 137.07 181.637 135.921 183.465C134.819 185.215 134.593 188.477 136.287 190.812Z" clip-rule="evenodd" fill="" fill-opacity="1.000000" fill-rule="evenodd"/>
	</mask>
	<path id="Exclude" d="M141.673 196.688C137.78 196.688 135.778 195.805 133.887 193.965C131.409 191.559 131.527 188.379 131.409 186.785C131.409 179.586 137.426 176.867 141.673 176.867C149.624 176.867 151.583 183.691 151.583 186.785C151.583 190.875 150.167 192.613 148.751 193.965C147.336 195.32 145.566 196.688 141.673 196.688ZM136.287 190.812C136.899 191.746 138.857 193.262 141.792 193.262C142.893 193.262 145.413 192.801 147.081 190.812C148.75 188.824 148.994 185.398 147.081 182.719C145.918 181.09 143.277 180.012 141.058 180.312C138.84 180.617 137.07 181.637 135.921 183.465C134.819 185.215 134.593 188.477 136.287 190.812Z" clip-rule="evenodd" fill="#3F3F3F" fill-opacity="1.000000" fill-rule="evenodd" mask="url(#mask_325_132)"/>
	<path id="Exclude" d="M141.673 197.188Q140.187 197.188 139.008 197.016Q137.829 196.844 136.856 196.484Q135.913 196.137 135.077 195.586Q134.309 195.074 133.538 194.324Q131.994 192.824 131.387 190.625Q131.164 189.816 131.055 188.859Q130.992 188.312 130.943 187.379Q130.923 186.988 130.91 186.82L130.909 186.805L130.909 186.785Q130.909 184.105 131.968 181.977Q132.915 180.074 134.642 178.73Q136.167 177.547 138.127 176.93Q139.899 176.367 141.673 176.367Q144.591 176.367 146.81 177.539Q148.724 178.551 150.018 180.375Q151.087 181.887 151.633 183.793Q151.863 184.594 151.978 185.398Q152.083 186.133 152.083 186.785Q152.083 189.656 151.149 191.617Q150.761 192.434 150.182 193.16Q149.749 193.703 149.097 194.328Q148.442 194.953 147.895 195.363Q147.154 195.918 146.351 196.289Q144.405 197.188 141.673 197.188ZM141.673 196.188Q144.185 196.188 145.931 195.379Q146.639 195.055 147.296 194.562Q147.795 194.188 148.406 193.605Q149.009 193.027 149.4 192.539Q149.908 191.898 150.247 191.188Q151.083 189.43 151.083 186.785Q151.083 186.203 150.988 185.543Q150.883 184.805 150.672 184.066Q150.173 182.324 149.202 180.953Q148.046 179.324 146.342 178.422Q144.343 177.367 141.673 177.367Q140.053 177.367 138.428 177.883Q136.639 178.449 135.255 179.523Q133.709 180.723 132.863 182.422Q131.909 184.34 131.909 186.785L131.409 186.785L131.908 186.746Q131.921 186.926 131.942 187.328Q131.989 188.23 132.048 188.746Q132.148 189.625 132.351 190.359Q132.886 192.297 134.235 193.609Q134.939 194.293 135.63 194.75Q136.368 195.242 137.202 195.547Q138.077 195.871 139.152 196.027Q140.259 196.188 141.673 196.188ZM136.706 190.539Q136.918 190.863 137.32 191.211Q137.795 191.625 138.403 191.945Q139.108 192.32 139.905 192.527Q140.816 192.762 141.792 192.762Q142.225 192.762 142.761 192.668Q143.419 192.551 144.049 192.316Q145.678 191.707 146.698 190.492Q147.265 189.816 147.583 188.918Q147.903 188.016 147.924 187.016Q147.946 185.98 147.644 184.977Q147.325 183.922 146.674 183.008Q146.292 182.473 145.667 182.016Q145.047 181.566 144.279 181.258Q143.505 180.945 142.7 180.828Q141.873 180.707 141.126 180.809Q137.903 181.25 136.344 183.73Q135.967 184.328 135.76 185.145Q135.544 185.996 135.556 186.91Q135.569 187.883 135.839 188.781Q136.13 189.742 136.692 190.52L136.699 190.527L136.706 190.539ZM135.869 191.086L136.287 190.812L135.883 191.105Q135.222 190.195 134.882 189.07Q134.57 188.039 134.556 186.926Q134.542 185.879 134.791 184.898Q135.037 183.93 135.497 183.199Q136.41 181.746 137.83 180.887Q139.198 180.062 140.991 179.82Q141.877 179.699 142.844 179.84Q143.768 179.973 144.652 180.328Q145.536 180.684 146.256 181.211Q147.012 181.762 147.488 182.43Q148.235 183.473 148.602 184.691Q148.949 185.844 148.924 187.035Q148.9 188.195 148.526 189.254Q148.148 190.32 147.464 191.133Q146.83 191.891 145.982 192.453Q145.254 192.934 144.399 193.25Q143.683 193.52 142.936 193.652Q142.314 193.762 141.792 193.762Q140.689 193.762 139.655 193.496Q138.743 193.258 137.934 192.828Q137.226 192.453 136.665 191.969Q136.158 191.527 135.869 191.086Z" fill="#3F3F3F" fill-opacity="1.000000" fill-rule="nonzero"/>
	<mask id="mask_325_135" fill="white">
		<path id="Exclude" d="M159.374 177.527L159.374 195.699C159.374 196.254 159.822 196.699 160.374 196.699L161.914 196.699C162.466 196.699 162.914 196.254 162.914 195.699L162.914 190.977C162.914 190.426 163.361 189.977 163.914 189.977L166.584 189.977C166.941 189.977 167.271 190.168 167.449 190.477L170.765 196.203C170.944 196.512 171.273 196.699 171.63 196.699L173.86 196.699C174.643 196.699 175.122 195.84 174.71 195.176L171.551 190.07C171.272 189.621 171.394 189.027 171.759 188.645C172.894 187.449 174.239 185.199 174.239 182.883C174.239 181.113 173.637 179.074 171.762 177.574C170.946 176.922 169.992 176.527 168.576 176.527L160.374 176.527C159.822 176.527 159.374 176.977 159.374 177.527ZM185.503 176.527L187.042 176.527C187.594 176.527 188.042 176.977 188.042 177.527L188.042 189.27C188.042 191.375 189.812 193.516 192.997 193.516C196.182 193.516 197.952 192.438 197.952 189.27L197.952 177.527C197.952 176.977 198.4 176.527 198.952 176.527L200.491 176.527C201.044 176.527 201.491 176.977 201.491 177.527L201.491 189.27C201.491 192.438 199.722 196.156 196.182 196.699C194.767 196.918 190.449 196.898 188.75 196.332C187.098 195.625 184.503 193.516 184.503 189.27L184.503 177.527C184.503 176.977 184.951 176.527 185.503 176.527ZM162.559 179.695L162.559 186.066L168.221 186.066C171.761 186.066 171.761 179.695 168.221 179.695L162.559 179.695Z" clip-rule="evenodd" fill="" fill-opacity="1.000000" fill-rule="evenodd"/>
	</mask>
	<path id="Exclude" d="M159.374 177.527L159.374 195.699C159.374 196.254 159.822 196.699 160.374 196.699L161.914 196.699C162.466 196.699 162.914 196.254 162.914 195.699L162.914 190.977C162.914 190.426 163.361 189.977 163.914 189.977L166.584 189.977C166.941 189.977 167.271 190.168 167.449 190.477L170.765 196.203C170.944 196.512 171.273 196.699 171.63 196.699L173.86 196.699C174.643 196.699 175.122 195.84 174.71 195.176L171.551 190.07C171.272 189.621 171.394 189.027 171.759 188.645C172.894 187.449 174.239 185.199 174.239 182.883C174.239 181.113 173.637 179.074 171.762 177.574C170.946 176.922 169.992 176.527 168.576 176.527L160.374 176.527C159.822 176.527 159.374 176.977 159.374 177.527ZM185.503 176.527L187.042 176.527C187.594 176.527 188.042 176.977 188.042 177.527L188.042 189.27C188.042 191.375 189.812 193.516 192.997 193.516C196.182 193.516 197.952 192.438 197.952 189.27L197.952 177.527C197.952 176.977 198.4 176.527 198.952 176.527L200.491 176.527C201.044 176.527 201.491 176.977 201.491 177.527L201.491 189.27C201.491 192.438 199.722 196.156 196.182 196.699C194.767 196.918 190.449 196.898 188.75 196.332C187.098 195.625 184.503 193.516 184.503 189.27L184.503 177.527C184.503 176.977 184.951 176.527 185.503 176.527ZM162.559 179.695L162.559 186.066L168.221 186.066C171.761 186.066 171.761 179.695 168.221 179.695L162.559 179.695Z" clip-rule="evenodd" fill="#3F3F3F" fill-opacity="1.000000" fill-rule="evenodd" mask="url(#mask_325_135)"/>
	<path id="Exclude" d="M159.874 177.527L159.874 195.699Q159.874 195.906 160.021 196.055Q160.167 196.199 160.374 196.199L161.914 196.199Q162.121 196.199 162.267 196.055Q162.414 195.906 162.414 195.699L162.414 190.977Q162.414 190.672 162.532 190.391Q162.646 190.125 162.853 189.914Q163.06 189.707 163.329 189.594Q163.609 189.477 163.914 189.477L166.584 189.477Q166.985 189.477 167.333 189.676Q167.681 189.879 167.882 190.227L171.198 195.953Q171.265 196.066 171.381 196.133Q171.497 196.199 171.63 196.199L173.86 196.199Q174.004 196.199 174.12 196.129Q174.231 196.062 174.296 195.945Q174.362 195.828 174.361 195.695Q174.361 195.559 174.285 195.438L171.126 190.336Q170.973 190.09 170.922 189.801Q170.875 189.531 170.92 189.254Q171.009 188.707 171.397 188.297Q171.82 187.855 172.214 187.281Q172.648 186.652 172.974 185.969Q173.739 184.367 173.739 182.883Q173.739 181.504 173.243 180.32Q172.661 178.934 171.449 177.965Q170.871 177.5 170.23 177.277Q169.51 177.027 168.576 177.027L160.374 177.027Q160.167 177.027 160.021 177.172Q159.874 177.32 159.874 177.527ZM158.874 177.527Q158.874 177.223 158.992 176.941Q159.106 176.676 159.314 176.465Q159.521 176.258 159.79 176.145Q160.069 176.027 160.374 176.027L168.576 176.027Q169.679 176.027 170.558 176.332Q171.361 176.613 172.074 177.184Q173.485 178.312 174.165 179.934Q174.739 181.305 174.739 182.883Q174.739 183.777 174.495 184.719Q174.278 185.559 173.876 186.398Q173.516 187.156 173.037 187.848Q172.599 188.484 172.122 188.988Q171.946 189.172 171.907 189.414Q171.87 189.637 171.976 189.809L175.135 194.91Q175.359 195.273 175.361 195.691Q175.363 196.086 175.17 196.43Q174.977 196.777 174.642 196.984Q174.286 197.199 173.86 197.199L171.63 197.199Q171.229 197.199 170.881 197Q170.533 196.801 170.332 196.453L167.017 190.727Q166.95 190.609 166.834 190.543Q166.718 190.477 166.584 190.477L163.914 190.477Q163.706 190.477 163.56 190.621Q163.414 190.77 163.414 190.977L163.414 195.699Q163.414 196.004 163.295 196.285Q163.182 196.555 162.974 196.762Q162.767 196.969 162.498 197.082Q162.218 197.199 161.914 197.199L160.374 197.199Q160.069 197.199 159.79 197.082Q159.521 196.969 159.314 196.762Q159.106 196.555 158.992 196.285Q158.874 196.004 158.874 195.699L158.874 177.527ZM185.503 176.027L187.042 176.027Q187.347 176.027 187.626 176.145Q187.895 176.258 188.103 176.465Q188.31 176.676 188.424 176.941Q188.542 177.223 188.542 177.527L188.542 189.27Q188.542 189.965 188.827 190.621Q189.121 191.301 189.669 191.82Q190.255 192.375 191.057 192.68Q191.936 193.016 192.997 193.016Q194.166 193.016 194.996 192.812Q195.829 192.609 196.359 192.188Q196.892 191.766 197.161 191.086Q197.452 190.348 197.452 189.27L197.452 177.527Q197.452 177.223 197.57 176.941Q197.684 176.676 197.891 176.465Q198.099 176.258 198.368 176.145Q198.647 176.027 198.952 176.027L200.491 176.027Q200.796 176.027 201.075 176.145Q201.345 176.258 201.552 176.465Q201.759 176.676 201.873 176.941Q201.991 177.223 201.991 177.527L201.991 189.27Q201.991 190.555 201.641 191.824Q201.276 193.152 200.586 194.238Q199.837 195.418 198.796 196.164Q197.652 196.98 196.258 197.195Q195.689 197.281 194.678 197.316Q193.657 197.348 192.556 197.309Q191.345 197.27 190.371 197.156Q189.243 197.023 188.592 196.805L188.572 196.801L188.553 196.793Q187.796 196.469 187.086 195.926Q186.243 195.281 185.606 194.426Q184.863 193.43 184.46 192.223Q184.003 190.855 184.003 189.27L184.003 177.527Q184.003 177.223 184.121 176.941Q184.235 176.676 184.442 176.465Q184.65 176.258 184.919 176.145Q185.198 176.027 185.503 176.027ZM185.503 177.027Q185.296 177.027 185.149 177.172Q185.003 177.32 185.003 177.527L185.003 189.27Q185.003 190.691 185.408 191.906Q185.761 192.961 186.408 193.828Q186.961 194.57 187.693 195.129Q188.305 195.598 188.947 195.871L188.75 196.332L188.908 195.855Q189.462 196.043 190.487 196.164Q191.42 196.273 192.589 196.312Q193.658 196.348 194.647 196.316Q195.597 196.285 196.106 196.207Q197.264 196.027 198.214 195.348Q199.097 194.719 199.742 193.703Q200.351 192.742 200.677 191.559Q200.991 190.418 200.991 189.27L200.991 177.527Q200.991 177.32 200.845 177.172Q200.698 177.027 200.491 177.027L198.952 177.027Q198.745 177.027 198.598 177.172Q198.452 177.32 198.452 177.527L198.452 189.27Q198.452 190.539 198.091 191.453Q197.724 192.383 196.979 192.973Q196.279 193.527 195.234 193.785Q194.287 194.016 192.997 194.016Q191.753 194.016 190.701 193.617Q189.712 193.238 188.981 192.547Q188.284 191.883 187.91 191.02Q187.542 190.172 187.542 189.27L187.542 177.527Q187.542 177.32 187.396 177.172Q187.249 177.027 187.042 177.027L185.503 177.027ZM163.059 179.695L163.059 186.066L162.559 186.066L162.559 185.566L168.221 185.566Q169.223 185.566 169.81 184.773Q170.084 184.402 170.231 183.906Q170.376 183.418 170.376 182.879Q170.376 182.344 170.231 181.852Q170.084 181.355 169.81 180.988Q169.223 180.195 168.221 180.195L162.559 180.195L162.559 179.695L163.059 179.695ZM162.059 179.195L168.221 179.195Q168.985 179.195 169.615 179.527Q170.199 179.832 170.614 180.395Q170.992 180.902 171.189 181.57Q171.376 182.199 171.376 182.879Q171.376 183.562 171.189 184.191Q170.992 184.859 170.614 185.367Q170.199 185.93 169.615 186.234Q168.985 186.566 168.221 186.566L162.059 186.566L162.059 179.695L162.059 179.195Z" fill="#3F3F3F" fill-opacity="1.000000" fill-rule="nonzero"/>
	<path id="Vector 48" d="M11.82 82.66C15.59 89.18 34.19 101.8 78.36 100.14C90.29 100.03 120.79 96.39 147.34 82.66C164.18 75.1 197.7 61.95 214.21 60.04C230.73 58.14 263.59 64.41 282.06 66.62C291.29 67.72 325.45 64.35 341 51.54C328.85 53.73 307.32 60.04 287.56 60.04C273.75 60.58 244.33 55.86 224.25 51.2C202.12 46.07 154.95 37.4 140.05 42.4L128.4 45.29C119.06 46.94 97.24 50.1 84.68 49.46C73.24 49.03 48.12 45.64 39.18 35.5C27.63 34.86 3.56 32.12 0 31.33C20.07 39.51 65.57 56.29 86.95 57.96C110.21 58.87 157.96 62.29 162.89 68.7C150.58 76.08 120.3 87.77 100.06 90.83C87.48 93.3 52.23 95.1 11.82 82.66Z" fill="#3F3F3F" fill-opacity="1.000000" fill-rule="evenodd"/>
	<path id="Vector 49" d="M7.52 19.32L88.14 30.88C100.12 32.56 125.65 29.46 145.13 23.71C156.78 20.28 195.83 11.76 239.35 14.11C262.5 15.35 310.09 16.04 315.92 17.04C305.56 10.83 257.32 -2.03 225.26 0.27C209.72 1.68 174.25 7.32 155 14.11C142.53 18.51 121.98 19.75 113.88 18.51C101.58 16.6 72.05 12.8 52.36 12.8C40.87 12.42 15.81 13.2 7.52 19.32Z" fill="#3F3F3F" fill-opacity="1.000000" fill-rule="evenodd"/>
	<path id="Vector 50" d="M219.39 28.83C231.77 32.99 270.32 35.07 325.95 35.07C300.81 41.46 242.23 44.05 219.39 28.83Z" fill="#3F3F3F" fill-opacity="1.000000" fill-rule="evenodd"/>
</svg>
