<svg width="150.000000" height="54.343750" viewBox="0 0 150 54.3438" fill="none" xmlns="http://www.w3.org/2000/svg" xmlns:xlink="http://www.w3.org/1999/xlink">
	<desc>
			Created with Pixso.
	</desc>
	<defs/>
	<path id="Vector 9" d="M90.91 54L90.91 48.77C90.91 48.66 91 48.57 91.11 48.57L91.71 48.57C91.83 48.57 91.92 48.66 91.92 48.77L91.92 50.58C91.92 50.76 92.14 50.85 92.26 50.72L94.27 48.63C94.31 48.59 94.36 48.57 94.42 48.57L95.01 48.57C95.18 48.57 95.27 48.76 95.16 48.9L93.42 50.97C93.37 51.03 93.36 51.14 93.41 51.21L95.23 53.89C95.32 54.02 95.22 54.21 95.06 54.21L94.44 54.21C94.37 54.21 94.31 54.17 94.27 54.12L92.65 51.87C92.58 51.77 92.44 51.75 92.35 51.83L91.78 52.33C91.74 52.37 91.72 52.42 91.72 52.48L91.72 54C91.72 54.11 91.62 54.21 91.51 54.21L91.11 54.21C91 54.21 90.91 54.11 90.91 54Z" fill="#3F3F3F" fill-opacity="1.000000" fill-rule="nonzero"/>
	<path id="Vector 9 (Stroke)" d="M91.11 48.67C91.06 48.67 91.01 48.71 91.01 48.76L91.01 54C91.01 54.06 91.06 54.1 91.11 54.1L91.51 54.1C91.57 54.1 91.61 54.06 91.61 54L91.61 52.48C91.61 52.39 91.65 52.31 91.72 52.25L92.29 51.76C92.42 51.64 92.63 51.66 92.73 51.81L94.35 54.06C94.37 54.09 94.4 54.1 94.44 54.1L95.06 54.1C95.14 54.1 95.19 54.01 95.14 53.94L93.33 51.26C93.25 51.15 93.26 51 93.35 50.9L95.08 48.83C95.14 48.76 95.09 48.67 95.01 48.67L94.42 48.67C94.39 48.67 94.37 48.67 94.35 48.7L92.34 50.79C92.15 50.99 91.82 50.85 91.82 50.58L91.82 48.76C91.82 48.71 91.77 48.67 91.71 48.67L91.11 48.67ZM90.81 48.76C90.81 48.6 90.94 48.46 91.11 48.46L91.71 48.46C91.88 48.46 92.02 48.6 92.02 48.76L92.02 50.58C92.02 50.67 92.13 50.72 92.19 50.65L94.2 48.56C94.26 48.5 94.34 48.46 94.42 48.46L95.01 48.46C95.26 48.46 95.4 48.76 95.24 48.96L93.5 51.03C93.47 51.07 93.47 51.11 93.5 51.15L95.31 53.83C95.45 54.03 95.3 54.3 95.06 54.3L94.44 54.3C94.34 54.3 94.25 54.26 94.19 54.18L92.57 51.92C92.53 51.88 92.46 51.87 92.42 51.91L91.85 52.41C91.83 52.42 91.82 52.45 91.82 52.48L91.82 54C91.82 54.17 91.68 54.3 91.51 54.3L91.11 54.3C90.94 54.3 90.81 54.17 90.81 54L90.81 48.76Z" fill="#3F3F3F" fill-opacity="1.000000" fill-rule="evenodd"/>
	<path id="Vector 12" d="M100.93 43.52C100.5 43.52 100.5 42.79 100.93 42.79C101.14 42.79 101.48 42.76 101.68 42.72C102.22 42.61 102.28 41.99 102.32 41.64L102.32 41.64L102.53 32.03C102.49 30.53 101.14 30.46 100.61 30.15C100.18 29.9 100.43 29.7 100.61 29.63L103.27 29.63C103.62 29.63 103.77 29.83 103.81 29.94L108.6 40.08C108.83 40.5 109.14 40.3 109.24 40.08L114.14 29.94C114.25 29.73 114.46 29.63 114.57 29.63L116.81 29.63C117.39 29.63 117.29 30.43 116.81 30.46C116.59 30.48 116.31 30.53 116.17 30.57C115.83 30.65 115.64 30.88 115.64 31.19L115.95 41.96C115.98 42.42 116.18 42.51 116.38 42.58C116.79 42.72 117.28 42.85 117.66 42.92C118.2 43.02 118.1 43.52 117.66 43.52L112.97 43.52C112.46 43.52 112.46 42.79 112.97 42.79L113.4 42.79C113.99 42.71 114.14 42.27 114.14 42.06L113.93 33.7C113.93 33.61 113.77 33.46 113.61 33.7L109.03 42.9C108.73 43.42 108.43 43.22 108.28 42.9L104.02 34.23C103.8 33.86 103.49 33.96 103.49 34.23L103.49 41.75C103.49 42.17 103.84 42.48 104.02 42.58C104.2 42.69 104.78 42.81 105.09 42.9C105.51 43.02 105.41 43.52 105.09 43.52L100.93 43.52Z" fill="#3F3F3F" fill-opacity="1.000000" fill-rule="nonzero"/>
	<path id="Vector 12 (Stroke)" d="M100.59 29.53L103.27 29.53C103.66 29.53 103.85 29.76 103.9 29.9L108.69 40.03C108.74 40.12 108.79 40.17 108.84 40.2C108.88 40.23 108.91 40.23 108.95 40.22C109.02 40.21 109.1 40.13 109.15 40.03L109.15 40.03L114.05 29.89C114.12 29.77 114.21 29.68 114.3 29.62C114.39 29.56 114.49 29.53 114.57 29.53L116.81 29.53C116.98 29.53 117.11 29.58 117.2 29.69C117.28 29.79 117.32 29.92 117.31 30.04C117.29 30.28 117.12 30.55 116.81 30.57C116.61 30.58 116.33 30.63 116.19 30.67C116.04 30.7 115.92 30.77 115.85 30.86C115.78 30.95 115.74 31.06 115.74 31.19L116.06 41.95C116.07 42.17 116.12 42.28 116.18 42.35C116.24 42.42 116.32 42.46 116.41 42.49C116.82 42.62 117.31 42.75 117.68 42.82C117.97 42.87 118.14 43.06 118.13 43.27C118.11 43.47 117.92 43.62 117.66 43.62L112.97 43.62C112.82 43.62 112.69 43.57 112.61 43.48C112.53 43.39 112.49 43.27 112.49 43.16C112.49 43.04 112.53 42.92 112.61 42.83C112.69 42.75 112.82 42.69 112.97 42.69L113.39 42.69C113.66 42.65 113.82 42.53 113.91 42.41C114.01 42.28 114.04 42.14 114.04 42.06L113.83 33.71L113.83 33.7C113.83 33.7 113.83 33.7 113.82 33.69C113.81 33.68 113.8 33.67 113.8 33.67C113.79 33.67 113.79 33.67 113.77 33.67C113.76 33.68 113.73 33.7 113.7 33.75L109.12 42.94L109.12 42.94C108.96 43.22 108.78 43.35 108.58 43.32C108.4 43.28 108.27 43.11 108.19 42.94L103.93 34.27C103.83 34.11 103.73 34.08 103.68 34.08C103.64 34.09 103.59 34.13 103.59 34.23L103.59 41.75C103.59 41.92 103.66 42.09 103.77 42.22C103.87 42.35 103.99 42.45 104.07 42.5C104.11 42.51 104.17 42.54 104.25 42.57C104.33 42.59 104.43 42.62 104.53 42.65C104.6 42.67 104.68 42.69 104.76 42.71C104.89 42.74 105.02 42.77 105.11 42.8C105.37 42.87 105.48 43.07 105.47 43.26C105.45 43.45 105.31 43.62 105.09 43.62L100.93 43.62C100.79 43.62 100.68 43.56 100.61 43.47C100.54 43.38 100.51 43.26 100.51 43.16C100.51 43.05 100.54 42.93 100.61 42.84C100.68 42.75 100.79 42.69 100.93 42.69C101.14 42.69 101.47 42.66 101.66 42.62C101.89 42.57 102.01 42.42 102.09 42.23C102.17 42.04 102.2 41.81 102.21 41.64L102.43 32.03C102.42 31.67 102.33 31.41 102.2 31.2C102.07 31 101.9 30.85 101.7 30.73C101.51 30.62 101.3 30.53 101.09 30.46C101.07 30.45 101.05 30.44 101.02 30.43C100.85 30.37 100.68 30.31 100.56 30.24C100.45 30.17 100.37 30.1 100.32 30.03C100.27 29.94 100.26 29.86 100.29 29.79C100.31 29.72 100.36 29.66 100.41 29.62C100.46 29.58 100.52 29.55 100.57 29.53L100.59 29.53ZM100.63 29.73C100.6 29.74 100.56 29.76 100.54 29.78C100.5 29.81 100.49 29.83 100.48 29.85C100.47 29.87 100.47 29.89 100.49 29.92C100.51 29.96 100.56 30 100.66 30.06C100.77 30.13 100.92 30.18 101.09 30.25C101.12 30.25 101.14 30.26 101.16 30.27C101.37 30.34 101.59 30.43 101.81 30.56C102.02 30.69 102.22 30.85 102.37 31.1C102.52 31.33 102.62 31.64 102.63 32.03L102.63 32.03L102.42 41.65L102.42 41.65L102.41 41.66C102.4 41.83 102.37 42.08 102.28 42.31C102.18 42.54 102.01 42.76 101.7 42.82C101.5 42.86 101.15 42.89 100.93 42.89C100.86 42.89 100.8 42.92 100.77 42.97C100.73 43.01 100.71 43.08 100.71 43.16C100.71 43.23 100.73 43.3 100.77 43.35C100.8 43.39 100.86 43.42 100.93 43.42L105.09 43.42C105.19 43.42 105.26 43.35 105.27 43.25C105.27 43.16 105.22 43.04 105.06 42.99C104.96 42.96 104.85 42.94 104.72 42.91C104.64 42.89 104.56 42.86 104.48 42.84C104.37 42.82 104.27 42.79 104.19 42.76C104.1 42.73 104.02 42.7 103.97 42.67C103.87 42.61 103.73 42.5 103.61 42.34C103.49 42.19 103.39 41.98 103.39 41.75L103.39 34.23C103.39 34.05 103.49 33.91 103.66 33.89C103.82 33.87 103.98 33.97 104.11 34.17L104.11 34.17L108.37 42.85L108.37 42.85C108.44 43.01 108.54 43.1 108.62 43.12C108.68 43.13 108.8 43.1 108.94 42.85L113.52 33.65L113.52 33.65C113.57 33.58 113.62 33.52 113.68 33.5C113.74 33.46 113.8 33.46 113.86 33.48C113.91 33.5 113.95 33.53 113.98 33.57C114.01 33.6 114.03 33.65 114.03 33.7L114.24 42.06C114.24 42.19 114.2 42.37 114.07 42.53C113.95 42.7 113.73 42.85 113.41 42.89L113.4 42.89L112.97 42.89C112.87 42.89 112.8 42.93 112.76 42.98C112.71 43.02 112.69 43.09 112.69 43.16C112.69 43.23 112.71 43.29 112.76 43.34C112.8 43.39 112.87 43.42 112.97 43.42L117.66 43.42C117.84 43.42 117.92 43.32 117.92 43.25C117.93 43.18 117.88 43.06 117.64 43.02C117.26 42.94 116.76 42.82 116.35 42.68L116.35 42.68C116.25 42.64 116.12 42.59 116.03 42.48C115.93 42.37 115.87 42.21 115.85 41.96L115.85 41.96L115.53 31.19L115.53 31.19C115.53 31.01 115.59 30.86 115.7 30.73C115.8 30.6 115.96 30.51 116.14 30.47C116.29 30.43 116.58 30.38 116.8 30.36C116.98 30.35 117.1 30.19 117.11 30.03C117.11 29.94 117.09 29.87 117.05 29.82C117 29.77 116.93 29.73 116.81 29.73L114.57 29.73C114.54 29.73 114.48 29.75 114.41 29.79C114.34 29.83 114.28 29.9 114.23 29.99C114.23 29.99 114.23 29.99 114.23 29.99L109.33 40.12C109.33 40.12 109.33 40.12 109.33 40.12C109.27 40.25 109.15 40.39 108.99 40.42C108.91 40.44 108.82 40.42 108.73 40.37C108.65 40.32 108.58 40.24 108.51 40.12L108.51 40.12L103.71 29.98L103.71 29.97C103.69 29.91 103.57 29.73 103.27 29.73L100.63 29.73Z" fill="#3F3F3F" fill-opacity="1.000000" fill-rule="evenodd"/>
	<path id="Vector 13" d="M93.62 42.89C93.22 43.1 93.42 43.52 93.62 43.52L98.27 43.52C98.5 43.52 98.56 43.31 98.56 43.21C98.56 42.96 98.36 42.92 98.27 42.89C97.89 42.78 97.53 42.77 97.28 42.68C96.8 42.51 96.62 41.63 96.59 41.21L96.59 31.42C96.59 30.83 97.05 30.54 97.28 30.47C97.83 30.3 97.97 30.12 97.97 30.05C98.05 29.71 97.67 29.63 97.48 29.63L93.42 29.63C93.18 29.63 93.13 29.84 93.13 29.94C93.13 30.2 93.32 30.33 93.42 30.37L94.11 30.37C94.67 30.37 94.81 30.78 94.81 31L94.81 41.84C94.73 42.26 94.38 42.58 94.21 42.68C94.05 42.76 93.75 42.86 93.62 42.89Z" fill="#3F3F3F" fill-opacity="1.000000" fill-rule="nonzero"/>
	<path id="Vector 13 (Stroke)" d="M93.27 29.8C93.24 29.85 93.23 29.91 93.23 29.94C93.23 30.12 93.36 30.23 93.44 30.26L94.11 30.26C94.42 30.26 94.62 30.38 94.75 30.54C94.87 30.69 94.91 30.87 94.91 31L94.91 41.85L94.91 41.86C94.86 42.09 94.74 42.29 94.62 42.44C94.5 42.59 94.36 42.71 94.27 42.76L94.26 42.77L94.26 42.77C94.1 42.86 93.8 42.95 93.66 42.98C93.58 43.03 93.54 43.08 93.52 43.12C93.49 43.17 93.49 43.22 93.5 43.27C93.51 43.32 93.53 43.35 93.55 43.39C93.58 43.41 93.61 43.42 93.62 43.42L98.27 43.42C98.35 43.42 98.39 43.39 98.42 43.35C98.45 43.3 98.46 43.25 98.46 43.21C98.46 43.11 98.43 43.07 98.39 43.05C98.35 43.02 98.31 43.01 98.26 43C98.26 42.99 98.25 42.99 98.24 42.99C98.06 42.94 97.88 42.91 97.71 42.88L97.71 42.88C97.54 42.85 97.38 42.82 97.24 42.78C96.96 42.67 96.78 42.37 96.67 42.07C96.56 41.77 96.5 41.43 96.49 41.21L96.48 41.21L96.48 31.42C96.48 30.76 97 30.45 97.25 30.37C97.52 30.29 97.68 30.21 97.77 30.14C97.82 30.11 97.84 30.08 97.86 30.06C97.87 30.05 97.87 30.05 97.87 30.04L97.87 30.04L97.87 30.03C97.89 29.96 97.88 29.92 97.86 29.89C97.85 29.85 97.82 29.82 97.78 29.8C97.69 29.75 97.56 29.73 97.48 29.73L93.42 29.73C93.34 29.73 93.3 29.76 93.27 29.8ZM93.1 29.69C93.16 29.6 93.27 29.53 93.42 29.53L97.48 29.53C97.58 29.53 97.75 29.55 97.88 29.62C97.94 29.66 98.01 29.72 98.04 29.8C98.08 29.87 98.09 29.96 98.07 30.06C98.07 30.1 98.05 30.14 98.02 30.18C97.99 30.22 97.95 30.26 97.89 30.3C97.77 30.39 97.59 30.48 97.31 30.57C97.1 30.63 96.69 30.89 96.69 31.42L96.69 41.2C96.7 41.41 96.76 41.72 96.86 42C96.97 42.3 97.12 42.52 97.31 42.58C97.43 42.63 97.57 42.65 97.74 42.68L97.75 42.68C97.91 42.71 98.1 42.74 98.29 42.8C98.3 42.8 98.31 42.8 98.31 42.8C98.36 42.81 98.44 42.83 98.51 42.88C98.6 42.94 98.66 43.05 98.66 43.21C98.66 43.27 98.65 43.37 98.59 43.46C98.53 43.55 98.42 43.62 98.27 43.62L93.62 43.62C93.53 43.62 93.46 43.58 93.41 43.52C93.35 43.46 93.31 43.39 93.3 43.3C93.28 43.22 93.29 43.12 93.33 43.03C93.38 42.94 93.46 42.86 93.57 42.8L93.58 42.8L93.59 42.79C93.73 42.76 94.01 42.67 94.16 42.59C94.24 42.55 94.35 42.45 94.46 42.32C94.57 42.18 94.67 42.01 94.71 41.83L94.71 31C94.71 30.91 94.68 30.77 94.59 30.66C94.51 30.56 94.36 30.46 94.11 30.46L93.4 30.46L93.39 30.46C93.27 30.42 93.02 30.26 93.02 29.94C93.02 29.87 93.04 29.78 93.1 29.69Z" fill="#3F3F3F" fill-opacity="1.000000" fill-rule="evenodd"/>
	<path id="Vector 14" d="M66.84 39.48C66.64 39 66.14 39.27 66.14 39.58C66.3 41.51 66.61 42.08 66.84 42.32C67.45 42.92 68.35 43.3 68.96 43.4C69.76 43.54 70.37 43.55 70.87 43.5C71.98 43.4 72.72 43.1 73.09 42.9C74.13 42.33 74.53 41.81 74.9 41.08C75.3 40.3 75.36 39.25 75.2 38.37C75.04 37.48 74.23 36.79 73.89 36.55C73.33 36.07 71.85 35.55 71.17 35.35C70.37 35.1 69.46 34.76 68.76 34.24C68.05 33.74 67.88 32.86 67.95 32.43C68.05 31.52 68.56 31.14 68.96 30.92C70.07 30.31 71.81 30.75 72.38 31.02C73.59 31.5 73.99 32.83 74.19 33.43C74.3 33.64 74.5 33.56 74.6 33.43C75.01 32.93 74.53 31.05 74.4 30.31C74.34 29.99 74.09 29.93 73.89 30.21C73.77 30.38 73.59 30.35 73.49 30.31L72.18 29.93C70.97 29.65 69.87 29.71 69.36 29.83C68.05 30.16 67.4 30.89 67.05 31.52C66.54 32.43 66.49 33.53 66.64 34.24C66.84 35.15 67.75 35.89 68.35 36.25C68.86 36.55 69.8 36.99 70.27 37.16C71.68 37.66 72.72 38.13 73.09 38.37C73.75 38.79 73.85 39.3 73.89 39.67C73.99 40.6 73.77 41.21 73.29 41.69C72.32 42.66 70.54 42.56 69.76 42.39C67.95 42.12 67.21 40.35 66.84 39.48Z" fill="#3F3F3F" fill-opacity="1.000000" fill-rule="nonzero"/>
	<path id="Vector 14 (Stroke)" d="M72.16 30.03C70.96 29.75 69.87 29.81 69.39 29.93C68.11 30.25 67.48 30.96 67.13 31.57C66.64 32.45 66.59 33.53 66.74 34.22C66.84 34.64 67.1 35.04 67.42 35.38C67.74 35.72 68.11 35.99 68.41 36.17C68.9 36.46 69.84 36.9 70.3 37.07C71.71 37.57 72.76 38.04 73.14 38.28C73.49 38.5 73.69 38.75 73.81 38.99C73.94 39.24 73.97 39.47 73.99 39.67C74.1 40.62 73.87 41.25 73.36 41.76C72.85 42.27 72.14 42.49 71.46 42.57C70.79 42.64 70.14 42.58 69.75 42.5C68.81 42.35 68.15 41.82 67.68 41.22C67.22 40.62 66.93 39.95 66.75 39.51C66.71 39.41 66.65 39.36 66.6 39.33C66.56 39.31 66.5 39.31 66.45 39.33C66.33 39.36 66.24 39.48 66.24 39.57C66.4 41.5 66.71 42.04 66.92 42.25C67.5 42.83 68.39 43.21 68.98 43.3C69.77 43.44 70.37 43.45 70.86 43.4C71.96 43.3 72.68 43 73.04 42.81L73.04 42.81C73.56 42.53 73.91 42.26 74.17 41.98C74.44 41.7 74.63 41.4 74.81 41.04C75.2 40.28 75.26 39.26 75.1 38.39C75.03 37.97 74.79 37.59 74.54 37.28C74.28 36.98 74 36.75 73.83 36.64L73.83 36.64L73.83 36.63C73.56 36.4 73.06 36.16 72.54 35.94C72.01 35.72 71.48 35.54 71.14 35.44C70.34 35.2 69.42 34.85 68.7 34.32C68.33 34.05 68.1 33.69 67.97 33.34C67.84 33 67.82 32.65 67.85 32.41C67.9 31.94 68.06 31.6 68.26 31.35C68.46 31.1 68.7 30.94 68.91 30.83L68.91 30.83C69.49 30.51 70.23 30.47 70.88 30.54C71.54 30.61 72.12 30.78 72.42 30.92C73.05 31.18 73.47 31.65 73.75 32.13C74.02 32.57 74.17 33.03 74.27 33.33C74.28 33.35 74.28 33.37 74.29 33.39C74.3 33.42 74.32 33.44 74.33 33.45C74.35 33.45 74.36 33.46 74.38 33.46C74.43 33.45 74.48 33.42 74.52 33.37C74.6 33.27 74.65 33.08 74.66 32.83C74.67 32.58 74.65 32.28 74.6 31.97C74.55 31.55 74.46 31.11 74.38 30.76C74.35 30.6 74.32 30.45 74.3 30.33C74.27 30.18 74.21 30.14 74.18 30.14C74.14 30.13 74.07 30.14 73.97 30.27C73.81 30.49 73.57 30.44 73.46 30.41L72.16 30.03ZM69.34 29.73C69.86 29.6 70.98 29.55 72.2 29.83L72.21 29.83L73.52 30.21L73.52 30.22C73.62 30.25 73.73 30.26 73.81 30.15C73.92 30 74.07 29.91 74.22 29.94C74.37 29.97 74.46 30.12 74.5 30.29C74.52 30.41 74.54 30.55 74.58 30.71C74.65 31.06 74.74 31.51 74.8 31.94C74.85 32.26 74.87 32.57 74.86 32.84C74.85 33.1 74.8 33.34 74.68 33.5C74.61 33.57 74.52 33.64 74.41 33.66C74.35 33.66 74.29 33.66 74.24 33.62C74.18 33.59 74.14 33.54 74.1 33.48L74.1 33.47L74.1 33.46C74.09 33.44 74.08 33.42 74.08 33.4C73.98 33.1 73.83 32.66 73.58 32.23C73.31 31.77 72.92 31.34 72.34 31.11L72.34 31.11L72.34 31.11C72.07 30.98 71.5 30.8 70.86 30.74C70.22 30.67 69.53 30.72 69.01 31C68.81 31.11 68.6 31.26 68.42 31.48C68.24 31.7 68.1 32 68.05 32.44L68.05 32.44L68.05 32.44C68.02 32.64 68.04 32.95 68.16 33.27C68.28 33.59 68.48 33.92 68.82 34.16L68.82 34.16C69.51 34.67 70.4 35.01 71.2 35.25C71.54 35.35 72.08 35.53 72.61 35.75C73.13 35.97 73.66 36.22 73.95 36.48C74.13 36.6 74.42 36.83 74.69 37.15C74.96 37.47 75.22 37.88 75.3 38.35C75.46 39.25 75.41 40.32 74.99 41.13C74.8 41.5 74.6 41.82 74.32 42.12C74.03 42.42 73.67 42.7 73.14 42.99C72.75 43.19 72 43.5 70.88 43.6C70.37 43.65 69.76 43.64 68.94 43.5C68.32 43.4 67.39 43.01 66.77 42.39C66.51 42.12 66.2 41.52 66.04 39.58L66.04 39.58L66.04 39.58C66.04 39.37 66.2 39.19 66.39 39.14C66.48 39.1 66.59 39.1 66.69 39.16C66.8 39.2 66.88 39.3 66.94 39.44C67.12 39.87 67.39 40.52 67.84 41.1C68.29 41.67 68.91 42.16 69.78 42.3L69.78 42.3L69.79 42.3C70.16 42.38 70.79 42.44 71.44 42.37C72.09 42.29 72.76 42.08 73.22 41.62C73.67 41.16 73.89 40.59 73.79 39.69C73.77 39.5 73.74 39.29 73.63 39.08C73.53 38.87 73.35 38.66 73.03 38.45C72.67 38.23 71.64 37.76 70.23 37.25C69.76 37.08 68.81 36.64 68.3 36.34C67.99 36.16 67.61 35.87 67.27 35.52C66.94 35.17 66.65 34.74 66.54 34.26C66.38 33.53 66.44 32.4 66.96 31.47C67.32 30.82 68 30.07 69.34 29.73Z" fill="#3F3F3F" fill-opacity="1.000000" fill-rule="evenodd"/>
	<path id="Vector 16" d="M120.92 54L120.92 49.67C120.92 49.55 120.83 49.46 120.71 49.46L119.31 49.46C119.19 49.46 119.1 49.37 119.1 49.26L119.1 48.76C119.1 48.65 119.19 48.56 119.31 48.56L123.53 48.56C123.65 48.56 123.74 48.65 123.74 48.76L123.74 49.26C123.74 49.37 123.65 49.46 123.53 49.46L122.12 49.46C122.01 49.46 121.92 49.55 121.92 49.67L121.92 54C121.92 54.1 121.83 54.2 121.72 54.2L121.12 54.2C121.01 54.2 120.92 54.1 120.92 54Z" fill="#3F3F3F" fill-opacity="1.000000" fill-rule="nonzero"/>
	<path id="Vector 16 (Stroke)" d="M119 48.76C119 48.59 119.14 48.46 119.31 48.46L123.53 48.46C123.7 48.46 123.84 48.59 123.84 48.76L123.84 49.26C123.84 49.43 123.7 49.57 123.53 49.57L122.12 49.57C122.07 49.57 122.02 49.61 122.02 49.66L122.02 54C122.02 54.16 121.89 54.3 121.72 54.3L121.12 54.3C120.95 54.3 120.82 54.16 120.82 54L120.82 49.66C120.82 49.61 120.77 49.57 120.71 49.57L119.31 49.57C119.14 49.57 119 49.43 119 49.26L119 48.76ZM119.31 48.66C119.25 48.66 119.2 48.7 119.2 48.76L119.2 49.26C119.2 49.32 119.25 49.36 119.31 49.36L120.71 49.36C120.88 49.36 121.02 49.5 121.02 49.66L121.02 54C121.02 54.05 121.06 54.1 121.12 54.1L121.72 54.1C121.78 54.1 121.82 54.05 121.82 54L121.82 49.66C121.82 49.5 121.96 49.36 122.12 49.36L123.53 49.36C123.59 49.36 123.63 49.32 123.63 49.26L123.63 48.76C123.63 48.7 123.59 48.66 123.53 48.66L119.31 48.66Z" fill="#3F3F3F" fill-opacity="1.000000" fill-rule="evenodd"/>
	<path id="Exclude" d="M76.56 43.52L80.71 43.52C80.91 43.52 81.01 43.11 80.71 43.01C80.3 42.91 79.6 42.63 79.49 42.5C79.39 42.36 79.39 42.19 79.49 41.77L79.5 41.77C79.55 41.56 79.6 41.36 79.8 40.85L80.51 39.2C80.52 39.18 80.53 39.16 80.54 39.13C80.73 38.75 80.91 38.38 81.52 38.38L85.47 38.38C85.77 38.38 85.97 38.58 86.07 38.89L87.08 41.77C87.29 42.29 87.32 42.51 87.08 42.7C86.97 42.79 86.71 42.91 86.48 43.01C86.22 43.12 86.22 43.52 86.48 43.52L91.03 43.52C91.33 43.52 91.43 43.12 91.03 43.01C91.01 43 90.98 43 90.95 42.99C90.55 42.9 90.08 42.79 89.82 42.5C89.54 42.18 89.11 41.26 88.91 40.75L84.35 29.94C84.25 29.63 83.75 29.43 83.44 29.94L77.88 41.98C77.83 42.07 77.78 42.15 77.74 42.23C77.58 42.55 77.44 42.83 77.07 42.91C76.32 43.06 76.31 43.52 76.56 43.52ZM81.53 36.51C81.41 36.78 81.31 37.08 81.84 37.12L85.21 37.12C85.41 37.12 85.76 37 85.52 36.51L83.87 32.49C83.66 32.08 83.36 32.39 83.27 32.62L81.53 36.51Z" fill="#3F3F3F" fill-opacity="1.000000" fill-rule="evenodd"/>
	<path id="Exclude (Stroke)" d="M83.53 29.99L77.96 42.03L77.96 42.03C77.92 42.11 77.87 42.19 77.83 42.28L77.82 42.29C77.67 42.6 77.51 42.92 77.09 43C76.73 43.08 76.57 43.22 76.53 43.32C76.5 43.36 76.51 43.39 76.52 43.4C76.52 43.41 76.53 43.42 76.56 43.42L80.71 43.42C80.72 43.42 80.74 43.42 80.76 43.39C80.78 43.37 80.79 43.33 80.8 43.29C80.81 43.22 80.78 43.14 80.68 43.1C80.47 43.05 80.19 42.96 79.95 42.86C79.83 42.81 79.71 42.76 79.62 42.71C79.58 42.68 79.54 42.66 79.5 42.63C79.47 42.61 79.44 42.58 79.41 42.55C79.28 42.37 79.3 42.16 79.4 41.75L79.4 41.75C79.45 41.53 79.5 41.33 79.7 40.81L79.71 40.81L80.41 39.16L80.42 39.16C80.43 39.14 80.44 39.11 80.45 39.09L80.45 39.08C80.54 38.89 80.64 38.69 80.8 38.54C80.97 38.38 81.19 38.28 81.52 38.28L85.47 38.28C85.83 38.28 86.06 38.53 86.17 38.86L87.18 41.74C87.28 41.99 87.35 42.19 87.35 42.35C87.35 42.44 87.34 42.52 87.3 42.59C87.27 42.66 87.22 42.73 87.15 42.78C87.08 42.83 86.98 42.89 86.87 42.94C86.76 43 86.64 43.05 86.52 43.1C86.43 43.14 86.38 43.22 86.38 43.3C86.38 43.35 86.39 43.37 86.41 43.39C86.42 43.41 86.44 43.42 86.48 43.42L91.03 43.42C91.13 43.42 91.18 43.36 91.19 43.3C91.2 43.24 91.17 43.15 91.01 43.1C90.99 43.1 90.98 43.1 90.97 43.1C90.96 43.09 90.94 43.09 90.93 43.09L90.93 43.09C90.73 43.04 90.5 42.99 90.3 42.91C90.09 42.83 89.89 42.73 89.74 42.56C89.59 42.39 89.41 42.07 89.24 41.74C89.07 41.41 88.91 41.04 88.81 40.78L84.26 29.98L84.26 29.97C84.22 29.85 84.1 29.75 83.96 29.73C83.83 29.71 83.66 29.76 83.53 29.99ZM84.45 29.91C84.38 29.71 84.2 29.56 83.99 29.53C83.76 29.5 83.52 29.6 83.35 29.89L83.35 29.89L77.79 41.93C77.74 42.02 77.69 42.1 77.65 42.18L77.65 42.19C77.48 42.51 77.36 42.74 77.04 42.81C76.66 42.89 76.43 43.05 76.35 43.23C76.3 43.32 76.3 43.41 76.34 43.5C76.38 43.58 76.46 43.62 76.56 43.62L80.71 43.62C80.8 43.62 80.87 43.58 80.91 43.52C80.96 43.46 80.99 43.39 81 43.32C81.02 43.16 80.95 42.98 80.74 42.91L80.74 42.91L80.73 42.91C80.54 42.86 80.26 42.77 80.03 42.67C79.91 42.62 79.8 42.57 79.72 42.53C79.68 42.51 79.64 42.49 79.62 42.47C79.59 42.45 79.58 42.44 79.58 42.43C79.51 42.34 79.49 42.21 79.59 41.8L79.59 41.8L79.59 41.8C79.64 41.59 79.69 41.39 79.89 40.89L80.6 39.25C80.61 39.22 80.62 39.2 80.63 39.17C80.73 38.98 80.81 38.81 80.94 38.68C81.06 38.56 81.24 38.48 81.52 38.48L85.47 38.48C85.71 38.48 85.88 38.64 85.98 38.92L86.99 41.81L86.99 41.81C87.09 42.07 87.14 42.24 87.15 42.36C87.15 42.42 87.14 42.46 87.12 42.5C87.1 42.54 87.07 42.58 87.02 42.62C86.97 42.66 86.89 42.71 86.78 42.76C86.68 42.82 86.56 42.87 86.44 42.91C86.27 42.99 86.18 43.16 86.18 43.3C86.18 43.38 86.2 43.46 86.25 43.52C86.31 43.58 86.38 43.62 86.48 43.62L91.03 43.62C91.23 43.62 91.37 43.48 91.39 43.32C91.41 43.14 91.29 42.97 91.06 42.91L91.06 42.91L91.05 42.91C91.03 42.91 91 42.9 90.98 42.89L90.98 42.89C90.77 42.84 90.56 42.8 90.37 42.72C90.18 42.65 90.01 42.56 89.89 42.42C89.76 42.28 89.59 41.98 89.42 41.65C89.26 41.32 89.1 40.96 89 40.71L84.45 29.91ZM83.57 32.41C83.49 32.44 83.4 32.55 83.36 32.66L83.36 32.66L81.62 36.55C81.6 36.61 81.57 36.68 81.55 36.74C81.54 36.8 81.53 36.85 81.54 36.88C81.55 36.91 81.56 36.94 81.6 36.96C81.65 36.99 81.72 37.01 81.84 37.02L85.21 37.02C85.3 37.02 85.4 36.99 85.46 36.93C85.5 36.88 85.54 36.78 85.43 36.55L85.42 36.55L83.78 32.53C83.73 32.44 83.69 32.41 83.66 32.4C83.63 32.39 83.61 32.39 83.57 32.41ZM83.74 32.21C83.83 32.25 83.9 32.33 83.96 32.44L83.96 32.44L85.61 36.46C85.74 36.73 85.73 36.93 85.61 37.06C85.5 37.19 85.32 37.22 85.21 37.22L81.83 37.22L81.83 37.22C81.69 37.21 81.58 37.18 81.5 37.13C81.41 37.08 81.36 37.01 81.35 36.92C81.33 36.84 81.34 36.76 81.36 36.69C81.38 36.61 81.41 36.53 81.44 36.47L81.44 36.46L83.18 32.58C83.23 32.45 83.34 32.29 83.48 32.22C83.56 32.19 83.65 32.17 83.74 32.21Z" fill="#3F3F3F" fill-opacity="1.000000" fill-rule="evenodd"/>
	<path id="Exclude" d="M119.26 43.52L123.4 43.52C123.61 43.52 123.71 43.11 123.4 43.01C123 42.91 122.29 42.63 122.19 42.5C122.09 42.36 122.09 42.19 122.19 41.77L122.19 41.77C122.24 41.56 122.29 41.36 122.49 40.85L123.2 39.2C123.21 39.18 123.22 39.16 123.24 39.13C123.42 38.75 123.6 38.38 124.21 38.38L128.16 38.38C128.46 38.38 128.67 38.58 128.77 38.89L129.78 41.77C129.98 42.29 130.02 42.51 129.78 42.7C129.67 42.79 129.41 42.91 129.17 43.01C128.91 43.12 128.91 43.52 129.17 43.52L133.73 43.52C134.02 43.52 134.12 43.12 133.73 43.01C133.7 43 133.67 43 133.65 42.99C133.24 42.9 132.78 42.79 132.51 42.5C132.23 42.18 131.8 41.26 131.6 40.75L127.05 29.94C126.95 29.63 126.44 29.43 126.14 29.94L120.57 41.98C120.52 42.07 120.48 42.15 120.44 42.23C120.27 42.55 120.13 42.83 119.76 42.91C119.01 43.06 119 43.52 119.26 43.52ZM124.23 36.51C124.11 36.78 124.01 37.08 124.53 37.12L127.91 37.12C128.11 37.12 128.46 37 128.21 36.51L126.56 32.49C126.36 32.08 126.05 32.39 125.96 32.62L124.23 36.51Z" fill="#3F3F3F" fill-opacity="1.000000" fill-rule="evenodd"/>
	<path id="Exclude (Stroke)" d="M126.23 29.99L120.66 42.03L120.66 42.03C120.61 42.11 120.57 42.19 120.53 42.28L120.52 42.29C120.36 42.6 120.2 42.92 119.78 43C119.42 43.08 119.27 43.22 119.22 43.32C119.2 43.36 119.21 43.39 119.21 43.4C119.22 43.41 119.22 43.42 119.26 43.42L123.4 43.42C123.42 43.42 123.44 43.42 123.45 43.39C123.47 43.37 123.49 43.33 123.49 43.29C123.5 43.22 123.47 43.14 123.38 43.1C123.17 43.05 122.89 42.96 122.65 42.86C122.52 42.81 122.41 42.76 122.32 42.71C122.27 42.68 122.23 42.66 122.2 42.63C122.16 42.61 122.13 42.58 122.11 42.55C121.98 42.37 121.99 42.16 122.09 41.75L122.09 41.75C122.15 41.53 122.2 41.33 122.4 40.81L122.4 40.81L123.11 39.16L123.11 39.16C123.12 39.14 123.13 39.11 123.14 39.09L123.15 39.08C123.24 38.89 123.34 38.69 123.5 38.54C123.66 38.38 123.89 38.28 124.21 38.28L128.16 38.28C128.52 38.28 128.75 38.53 128.86 38.86L129.87 41.74C129.97 41.99 130.04 42.19 130.05 42.35C130.05 42.44 130.03 42.52 130 42.59C129.96 42.66 129.91 42.73 129.84 42.78C129.78 42.83 129.68 42.89 129.57 42.94C129.46 43 129.33 43.05 129.21 43.1C129.12 43.14 129.08 43.22 129.08 43.3C129.08 43.35 129.09 43.37 129.1 43.39C129.12 43.41 129.14 43.42 129.17 43.42L133.73 43.42C133.82 43.42 133.88 43.36 133.89 43.3C133.89 43.24 133.86 43.15 133.7 43.1C133.69 43.1 133.68 43.1 133.66 43.1C133.65 43.09 133.64 43.09 133.63 43.09L133.62 43.09C133.42 43.04 133.2 42.99 132.99 42.91C132.78 42.83 132.59 42.73 132.44 42.56C132.29 42.39 132.1 42.07 131.94 41.74C131.77 41.41 131.61 41.04 131.51 40.78L126.95 29.98L126.95 29.97C126.91 29.85 126.79 29.75 126.65 29.73C126.52 29.71 126.36 29.76 126.23 29.99ZM127.14 29.91C127.08 29.71 126.89 29.56 126.68 29.53C126.46 29.5 126.22 29.6 126.05 29.89L126.05 29.89L120.48 41.93C120.43 42.02 120.39 42.1 120.35 42.18L120.35 42.19C120.18 42.51 120.06 42.74 119.74 42.81C119.35 42.89 119.12 43.05 119.04 43.23C119 43.32 118.99 43.41 119.03 43.5C119.07 43.58 119.16 43.62 119.26 43.62L123.4 43.62C123.49 43.62 123.56 43.58 123.61 43.52C123.66 43.46 123.69 43.39 123.69 43.32C123.71 43.16 123.64 42.98 123.44 42.91L123.43 42.91L123.43 42.91C123.23 42.86 122.96 42.77 122.72 42.67C122.6 42.62 122.5 42.57 122.41 42.53C122.37 42.51 122.34 42.49 122.31 42.47C122.29 42.45 122.27 42.44 122.27 42.43C122.2 42.34 122.19 42.21 122.29 41.8L122.29 41.8L122.29 41.8C122.34 41.59 122.39 41.39 122.59 40.89L123.29 39.25C123.3 39.22 123.32 39.2 123.33 39.17C123.42 38.98 123.51 38.81 123.64 38.68C123.76 38.56 123.93 38.48 124.21 38.48L128.16 38.48C128.41 38.48 128.58 38.64 128.67 38.92L129.69 41.81L129.69 41.81C129.79 42.07 129.84 42.24 129.84 42.36C129.85 42.42 129.84 42.46 129.82 42.5C129.8 42.54 129.77 42.58 129.72 42.62C129.67 42.66 129.59 42.71 129.48 42.76C129.37 42.82 129.25 42.87 129.14 42.91C128.96 42.99 128.88 43.16 128.88 43.3C128.88 43.38 128.9 43.46 128.95 43.52C129 43.58 129.08 43.62 129.17 43.62L133.73 43.62C133.92 43.62 134.07 43.48 134.09 43.32C134.11 43.14 133.99 42.97 133.75 42.91L133.75 42.91L133.75 42.91C133.72 42.91 133.7 42.9 133.67 42.89L133.67 42.89C133.47 42.84 133.26 42.8 133.06 42.72C132.87 42.65 132.7 42.56 132.59 42.42C132.46 42.28 132.28 41.98 132.12 41.65C131.95 41.32 131.8 40.96 131.7 40.71L127.14 29.91ZM126.26 32.41C126.18 32.44 126.1 32.55 126.06 32.66L126.06 32.66L124.32 36.55C124.29 36.61 124.27 36.68 124.25 36.74C124.23 36.8 124.23 36.85 124.24 36.88C124.24 36.91 124.26 36.94 124.3 36.96C124.34 36.99 124.42 37.01 124.54 37.02L127.91 37.02C128 37.02 128.1 36.99 128.15 36.93C128.19 36.88 128.23 36.78 128.12 36.55L128.12 36.55L126.47 32.53C126.43 32.44 126.38 32.41 126.36 32.4C126.33 32.39 126.3 32.39 126.26 32.41ZM126.43 32.21C126.52 32.25 126.6 32.33 126.65 32.44L126.65 32.44L128.3 36.46C128.43 36.73 128.42 36.93 128.3 37.06C128.19 37.19 128.02 37.22 127.91 37.22L124.53 37.22L124.53 37.22C124.39 37.21 124.28 37.18 124.2 37.13C124.11 37.08 124.06 37.01 124.04 36.92C124.02 36.84 124.03 36.76 124.05 36.69C124.07 36.61 124.1 36.53 124.13 36.47L124.14 36.46L125.87 32.58C125.92 32.45 126.03 32.29 126.18 32.22C126.25 32.19 126.34 32.17 126.43 32.21Z" fill="#3F3F3F" fill-opacity="1.000000" fill-rule="evenodd"/>
	<path id="Exclude" d="M135.16 43.52L139.31 43.52C139.51 43.52 139.62 43.11 139.31 43.01C138.91 42.91 138.2 42.63 138.1 42.5C138 42.36 138 42.19 138.1 41.77L138.1 41.77C138.15 41.56 138.2 41.36 138.4 40.85L139.11 39.2C139.12 39.18 139.13 39.16 139.14 39.13C139.33 38.75 139.51 38.38 140.12 38.38L144.07 38.38C144.37 38.38 144.57 38.58 144.67 38.89L145.69 41.77C145.89 42.29 145.92 42.51 145.69 42.7C145.58 42.79 145.32 42.91 145.08 43.01C144.82 43.12 144.82 43.52 145.08 43.52L149.63 43.52C149.93 43.52 150.03 43.12 149.63 43.01C149.61 43 149.58 43 149.56 42.99C149.15 42.9 148.68 42.79 148.42 42.5C148.14 42.18 147.71 41.26 147.51 40.75L142.95 29.94C142.85 29.63 142.35 29.43 142.04 29.94L136.48 41.98C136.43 42.07 136.39 42.15 136.34 42.23C136.18 42.55 136.04 42.83 135.67 42.91C134.92 43.06 134.91 43.52 135.16 43.52ZM140.13 36.51C140.02 36.78 139.92 37.08 140.44 37.12L143.81 37.12C144.02 37.12 144.36 37 144.12 36.51L142.47 32.49C142.27 32.08 141.96 32.39 141.87 32.62L140.13 36.51Z" fill="#3F3F3F" fill-opacity="1.000000" fill-rule="evenodd"/>
	<path id="Exclude (Stroke)" d="M142.13 29.99L136.57 42.03L136.57 42.03C136.52 42.11 136.48 42.19 136.43 42.28L136.43 42.29C136.27 42.6 136.11 42.92 135.69 43C135.33 43.08 135.17 43.22 135.13 43.32C135.11 43.36 135.11 43.39 135.12 43.4C135.12 43.41 135.13 43.42 135.16 43.42L139.31 43.42C139.33 43.42 139.34 43.42 139.36 43.39C139.38 43.37 139.4 43.33 139.4 43.29C139.41 43.22 139.38 43.14 139.28 43.1C139.08 43.05 138.79 42.96 138.55 42.86C138.43 42.81 138.32 42.76 138.23 42.71C138.18 42.68 138.14 42.66 138.1 42.63C138.07 42.61 138.04 42.58 138.02 42.55C137.88 42.37 137.9 42.16 138 41.75L138 41.75C138.05 41.53 138.1 41.33 138.31 40.81L138.31 40.81L139.02 39.16L139.02 39.16C139.03 39.14 139.04 39.11 139.05 39.09L139.06 39.08C139.15 38.89 139.25 38.69 139.4 38.54C139.57 38.38 139.79 38.28 140.12 38.28L144.07 38.28C144.43 38.28 144.66 38.53 144.77 38.86L145.78 41.74C145.88 41.99 145.95 42.19 145.95 42.35C145.96 42.44 145.94 42.52 145.91 42.59C145.87 42.66 145.82 42.73 145.75 42.78C145.69 42.83 145.58 42.89 145.47 42.94C145.36 43 145.24 43.05 145.12 43.1C145.03 43.14 144.99 43.22 144.99 43.3C144.99 43.35 145 43.37 145.01 43.39C145.02 43.41 145.04 43.42 145.08 43.42L149.63 43.42C149.73 43.42 149.79 43.36 149.79 43.3C149.8 43.24 149.77 43.15 149.61 43.1C149.6 43.1 149.58 43.1 149.57 43.1C149.56 43.09 149.55 43.09 149.53 43.09L149.53 43.09C149.33 43.04 149.11 42.99 148.9 42.91C148.69 42.83 148.49 42.73 148.35 42.56C148.19 42.39 148.01 42.07 147.84 41.74C147.68 41.41 147.52 41.04 147.42 40.78L142.86 29.98L142.86 29.97C142.82 29.85 142.7 29.75 142.56 29.73C142.43 29.71 142.27 29.76 142.13 29.99ZM143.05 29.91C142.99 29.71 142.8 29.56 142.59 29.53C142.37 29.5 142.13 29.6 141.96 29.89L141.95 29.89L136.39 41.93C136.34 42.02 136.3 42.1 136.25 42.18L136.25 42.19C136.09 42.51 135.97 42.74 135.65 42.81C135.26 42.89 135.03 43.05 134.95 43.23C134.91 43.32 134.9 43.41 134.94 43.5C134.98 43.58 135.07 43.62 135.16 43.62L139.31 43.62C139.4 43.62 139.47 43.58 139.52 43.52C139.56 43.46 139.59 43.39 139.6 43.32C139.62 43.16 139.55 42.98 139.34 42.91L139.34 42.91L139.34 42.91C139.14 42.86 138.87 42.77 138.63 42.67C138.51 42.62 138.4 42.57 138.32 42.53C138.28 42.51 138.25 42.49 138.22 42.47C138.19 42.45 138.18 42.44 138.18 42.43C138.11 42.34 138.09 42.21 138.2 41.8L138.2 41.8L138.2 41.8C138.25 41.59 138.3 41.39 138.49 40.89L139.2 39.25C139.21 39.22 139.22 39.2 139.23 39.17C139.33 38.98 139.41 38.81 139.54 38.68C139.67 38.56 139.84 38.48 140.12 38.48L144.07 38.48C144.31 38.48 144.49 38.64 144.58 38.92L145.59 41.81L145.59 41.81C145.7 42.07 145.75 42.24 145.75 42.36C145.75 42.42 145.74 42.46 145.72 42.5C145.71 42.54 145.67 42.58 145.62 42.62C145.58 42.66 145.49 42.71 145.39 42.76C145.28 42.82 145.16 42.87 145.04 42.91C144.87 42.99 144.78 43.16 144.78 43.3C144.78 43.38 144.81 43.46 144.86 43.52C144.91 43.58 144.99 43.62 145.08 43.62L149.63 43.62C149.83 43.62 149.97 43.48 149.99 43.32C150.01 43.14 149.89 42.97 149.66 42.91L149.66 42.91L149.66 42.91C149.63 42.91 149.61 42.9 149.58 42.89L149.58 42.89C149.38 42.84 149.16 42.8 148.97 42.72C148.78 42.65 148.61 42.56 148.5 42.42C148.36 42.28 148.19 41.98 148.02 41.65C147.86 41.32 147.7 40.96 147.6 40.71L143.05 29.91ZM142.17 32.41C142.09 32.44 142 32.55 141.97 32.66L141.96 32.66L140.23 36.55C140.2 36.61 140.17 36.68 140.16 36.74C140.14 36.8 140.14 36.85 140.14 36.88C140.15 36.91 140.17 36.94 140.21 36.96C140.25 36.99 140.32 37.01 140.44 37.02L143.81 37.02C143.9 37.02 144 36.99 144.06 36.93C144.1 36.88 144.14 36.78 144.03 36.55L144.03 36.55L142.38 32.53C142.33 32.44 142.29 32.41 142.26 32.4C142.24 32.39 142.21 32.39 142.17 32.41ZM142.34 32.21C142.43 32.25 142.5 32.33 142.56 32.44L142.56 32.44L144.21 36.46C144.34 36.73 144.33 36.93 144.21 37.06C144.1 37.19 143.93 37.22 143.81 37.22L140.44 37.22L140.43 37.22C140.3 37.21 140.18 37.18 140.1 37.13C140.02 37.08 139.97 37.01 139.95 36.92C139.93 36.84 139.94 36.76 139.96 36.69C139.98 36.61 140.01 36.53 140.04 36.47L140.04 36.46L141.78 32.58C141.83 32.45 141.94 32.29 142.08 32.22C142.16 32.19 142.25 32.17 142.34 32.21Z" fill="#3F3F3F" fill-opacity="1.000000" fill-rule="evenodd"/>
	<path id="Exclude" d="M97.45 53.42C97.99 53.94 98.56 54.2 99.67 54.2C100.78 54.2 101.28 53.81 101.68 53.42C102.08 53.04 102.49 52.54 102.49 51.38C102.49 50.5 101.93 48.56 99.67 48.56C98.46 48.56 96.75 49.33 96.75 51.38C96.75 51.43 96.75 51.48 96.76 51.54C96.78 52.03 96.82 52.81 97.45 53.42ZM98.14 52.53C98.31 52.79 98.87 53.22 99.7 53.22C100.02 53.22 100.73 53.09 101.21 52.53C101.68 51.96 101.75 50.98 101.21 50.22C100.88 49.76 100.12 49.45 99.49 49.54C98.86 49.62 98.36 49.91 98.03 50.43C97.72 50.93 97.65 51.86 98.14 52.53Z" fill="#3F3F3F" fill-opacity="1.000000" fill-rule="evenodd"/>
	<path id="Exclude (Stroke)" d="M96.85 51.37C96.85 51.42 96.86 51.48 96.86 51.53L96.86 51.53C96.88 52.02 96.93 52.77 97.52 53.35C97.78 53.6 98.05 53.79 98.38 53.91C98.72 54.03 99.12 54.1 99.67 54.1C100.21 54.1 100.6 54 100.9 53.86C101.2 53.72 101.41 53.54 101.61 53.35C101.81 53.16 102 52.95 102.15 52.65C102.29 52.35 102.39 51.95 102.39 51.38C102.39 50.96 102.25 50.27 101.84 49.69C101.44 49.13 100.77 48.66 99.67 48.66C99.08 48.66 98.38 48.85 97.82 49.28C97.26 49.71 96.85 50.39 96.85 51.37ZM97.69 49.12C98.29 48.66 99.05 48.46 99.67 48.46C100.83 48.46 101.57 48.96 102.01 49.58C102.45 50.19 102.59 50.92 102.59 51.38C102.59 51.97 102.49 52.4 102.33 52.73C102.17 53.07 101.96 53.3 101.75 53.5C101.55 53.69 101.31 53.89 100.98 54.05C100.65 54.2 100.23 54.3 99.67 54.3C99.11 54.3 98.68 54.23 98.31 54.1C97.95 53.96 97.66 53.76 97.38 53.5C96.73 52.85 96.68 52.03 96.66 51.55L96.66 51.55C96.65 51.49 96.65 51.43 96.65 51.39L96.65 51.38L96.65 51.38C96.65 50.32 97.09 49.59 97.69 49.12ZM100.43 49.76C100.13 49.65 99.8 49.6 99.51 49.64C98.9 49.72 98.43 50 98.12 50.49C97.97 50.72 97.88 51.05 97.89 51.41C97.89 51.78 97.99 52.15 98.22 52.46L98.22 52.47L98.22 52.47C98.38 52.71 98.9 53.12 99.7 53.12C100 53.12 100.68 53 101.13 52.46C101.57 51.93 101.64 51.01 101.13 50.28C100.97 50.07 100.72 49.89 100.43 49.76ZM100.5 49.58C100.82 49.71 101.11 49.91 101.29 50.16C101.86 50.96 101.79 51.99 101.28 52.59C100.78 53.19 100.03 53.32 99.7 53.32C98.84 53.32 98.25 52.88 98.05 52.58C97.8 52.23 97.69 51.81 97.68 51.42C97.68 51.02 97.78 50.65 97.95 50.38C98.29 49.83 98.82 49.53 99.48 49.44C99.82 49.39 100.18 49.45 100.5 49.58Z" fill="#3F3F3F" fill-opacity="1.000000" fill-rule="evenodd"/>
	<path id="Exclude" d="M104.7 48.66L104.7 54C104.7 54.11 104.8 54.2 104.91 54.2L105.51 54.2C105.62 54.2 105.71 54.11 105.71 54L105.71 52.49C105.71 52.38 105.8 52.29 105.91 52.29L106.8 52.29C106.88 52.29 106.94 52.32 106.98 52.39L107.97 54.1C108.01 54.16 108.07 54.2 108.14 54.2L108.97 54.2C109.13 54.2 109.23 54.03 109.15 53.89L108.13 52.25C108.07 52.16 108.1 52.04 108.17 51.96C108.51 51.64 108.93 50.96 108.93 50.27C108.93 49.76 108.76 49.19 108.23 48.76C108 48.57 107.73 48.46 107.32 48.46L104.91 48.46C104.8 48.46 104.7 48.55 104.7 48.66ZM112.06 48.46L112.66 48.46C112.77 48.46 112.86 48.55 112.86 48.66L112.86 52.08C112.86 52.68 113.36 53.29 114.27 53.29C115.18 53.29 115.68 52.99 115.68 52.08L115.68 48.66C115.68 48.55 115.77 48.46 115.88 48.46L116.49 48.46C116.6 48.46 116.69 48.55 116.69 48.66L116.69 52.08C116.69 52.99 116.18 54.05 115.18 54.2C114.77 54.26 113.55 54.26 113.06 54.09C112.59 53.89 111.85 53.29 111.85 52.08L111.85 48.66C111.85 48.55 111.94 48.46 112.06 48.46ZM105.61 49.36L105.61 51.17L107.22 51.17C108.23 51.17 108.23 49.36 107.22 49.36L105.61 49.36Z" fill="#3F3F3F" fill-opacity="1.000000" fill-rule="evenodd"/>
	<path id="Exclude (Stroke)" d="M104.91 48.57C104.85 48.57 104.81 48.61 104.81 48.66L104.81 54C104.81 54.06 104.85 54.1 104.91 54.1L105.51 54.1C105.57 54.1 105.61 54.06 105.61 54L105.61 52.49C105.61 52.32 105.75 52.19 105.91 52.19L106.8 52.19C106.91 52.19 107.01 52.25 107.07 52.34L108.06 54.05C108.08 54.08 108.11 54.1 108.14 54.1L108.97 54.1C109.05 54.1 109.1 54.01 109.06 53.95L108.04 52.3C107.96 52.17 108 52 108.1 51.89C108.42 51.58 108.83 50.93 108.83 50.27C108.83 49.79 108.67 49.24 108.17 48.84C107.95 48.67 107.7 48.57 107.32 48.57L104.91 48.57ZM104.6 48.66C104.6 48.5 104.74 48.36 104.91 48.36L107.32 48.36C107.75 48.36 108.04 48.48 108.29 48.68C108.86 49.13 109.04 49.75 109.04 50.27C109.04 51 108.59 51.71 108.24 52.04C108.19 52.08 108.19 52.15 108.21 52.2L109.23 53.84C109.36 54.04 109.21 54.3 108.97 54.3L108.14 54.3C108.04 54.3 107.94 54.25 107.88 54.15L106.89 52.44C106.87 52.41 106.84 52.39 106.8 52.39L105.91 52.39C105.86 52.39 105.81 52.44 105.81 52.49L105.81 54C105.81 54.17 105.68 54.3 105.51 54.3L104.91 54.3C104.74 54.3 104.6 54.17 104.6 54L104.6 48.66ZM111.75 48.66C111.75 48.5 111.89 48.36 112.06 48.36L112.66 48.36C112.83 48.36 112.96 48.5 112.96 48.66L112.96 52.09C112.96 52.63 113.42 53.19 114.27 53.19C114.72 53.19 115.04 53.12 115.25 52.95C115.46 52.79 115.58 52.52 115.58 52.09L115.58 48.66C115.58 48.5 115.72 48.36 115.88 48.36L116.49 48.36C116.65 48.36 116.79 48.5 116.79 48.66L116.79 52.09C116.79 52.56 116.66 53.07 116.39 53.48C116.13 53.89 115.73 54.22 115.19 54.3C114.98 54.33 114.57 54.35 114.15 54.33C113.73 54.32 113.29 54.28 113.03 54.19L113.03 54.19L113.02 54.19C112.52 53.98 111.75 53.35 111.75 52.09L111.75 48.66ZM112.06 48.57C112 48.57 111.95 48.61 111.95 48.66L111.95 52.09C111.95 53.25 112.66 53.81 113.1 54C113.33 54.08 113.74 54.12 114.15 54.13C114.57 54.15 114.97 54.13 115.16 54.1C115.63 54.03 115.99 53.75 116.22 53.37C116.47 52.99 116.59 52.52 116.59 52.09L116.59 48.66C116.59 48.61 116.54 48.57 116.49 48.57L115.88 48.57C115.83 48.57 115.78 48.61 115.78 48.66L115.78 52.09C115.78 52.56 115.65 52.89 115.38 53.11C115.11 53.32 114.73 53.4 114.27 53.4C113.31 53.4 112.76 52.75 112.76 52.09L112.76 48.66C112.76 48.61 112.72 48.57 112.66 48.57L112.06 48.57ZM105.51 49.26L107.22 49.26C107.51 49.26 107.73 49.39 107.87 49.59C108.01 49.78 108.08 50.03 108.08 50.27C108.08 50.51 108.01 50.76 107.87 50.96C107.73 51.15 107.51 51.28 107.22 51.28L105.51 51.28L105.51 49.26ZM105.71 49.46L105.71 51.08L107.22 51.08C107.44 51.08 107.6 50.98 107.71 50.83C107.82 50.69 107.88 50.48 107.88 50.27C107.88 50.06 107.82 49.86 107.71 49.71C107.6 49.56 107.44 49.46 107.22 49.46L105.71 49.46Z" fill="#3F3F3F" fill-opacity="1.000000" fill-rule="evenodd"/>
	<path id="Vector 48" d="M4.04 28.32C5.34 30.55 11.71 34.88 26.84 34.3C30.93 34.27 41.38 33.02 50.48 28.32C56.25 25.73 67.73 21.22 73.39 20.57C79.04 19.92 90.3 22.07 96.63 22.82C99.79 23.2 111.5 22.05 116.82 17.66C112.66 18.41 105.28 20.57 98.52 20.57C93.78 20.75 83.7 19.14 76.83 17.54C69.24 15.78 53.08 12.81 47.98 14.53L43.99 15.51C40.79 16.08 33.31 17.16 29.01 16.94C25.09 16.8 16.48 15.64 13.42 12.16C9.46 11.94 1.22 11 0 10.73C6.87 13.53 22.46 19.28 29.78 19.85C37.75 20.17 54.11 21.34 55.8 23.53C51.59 26.06 41.21 30.07 34.28 31.12C29.97 31.96 17.89 32.58 4.04 28.32Z" fill="#3F3F3F" fill-opacity="1.000000" fill-rule="evenodd"/>
	<path id="Vector 49" d="M2.57 6.62L30.19 10.58C34.3 11.15 43.05 10.09 49.72 8.12C53.71 6.94 67.09 4.03 82 4.83C89.93 5.26 106.24 5.49 108.23 5.83C104.68 3.71 88.15 -0.7 77.17 0.09C71.85 0.57 59.69 2.5 53.1 4.83C48.83 6.33 41.79 6.76 39.01 6.33C34.8 5.69 24.68 4.39 17.94 4.39C14 4.25 5.41 4.52 2.57 6.62Z" fill="#3F3F3F" fill-opacity="1.000000" fill-rule="evenodd"/>
	<path id="Vector 50" d="M75.16 9.87C79.4 11.3 92.61 12.01 111.67 12.01C103.06 14.2 82.98 15.09 75.16 9.87Z" fill="#3F3F3F" fill-opacity="1.000000" fill-rule="evenodd"/>
</svg>
